<?xml version="1.0" standalone="no"?>
 <!DOCTYPE svg PUBLIC "-//W3C//DTD SVG 1.1//EN" 
 "http://www.w3.org/Graphics/SVG/1.1/DTD/svg11.dtd"> 
<svg xmlns="http://www.w3.org/2000/svg" version="1.1" 
    width="4.7117cm" height="3.60934cm" viewBox="0 0 18550 14210 ">
<title>SVG Picture created as multivibrator-F.SilkS.svg date 2017/05/10 15:27:48 </title>
  <desc>Picture generated by PCBNEW </desc>
<g style="fill:#000000; fill-opacity:1;stroke:#000000; stroke-opacity:1;
stroke-linecap:round; stroke-linejoin:round; "
 transform="translate(0 0) scale(1 1)">
</g>
<g style="fill:#C2C200; fill-opacity:0.0; 
stroke:#C2C200; stroke-width:-0.000393701; stroke-opacity:1; 
stroke-linecap:round; stroke-linejoin:round;">
</g>
<g style="fill:#C2C200; fill-opacity:0.0; 
stroke:#C2C200; stroke-width:59.0551; stroke-opacity:1; 
stroke-linecap:round; stroke-linejoin:round;">
<path d="M18520 14182
L20 14182
" />
<path d="M20 1682
L18520 1682
" />
<path d="M18520 14182
L18520 1682
" />
<path d="M20 1682
L20 14182
" />
<path d="M9498 7299
L9517 7317
L9573 7336
L9611 7336
L9667 7317
L9704 7280
L9723 7242
L9742 7167
L9742 7111
L9723 7036
L9704 6999
L9667 6961
L9611 6942
L9573 6942
L9517 6961
L9498 6980
" />
<path d="M9254 6942
L9179 6942
L9142 6961
L9104 6999
L9086 7074
L9086 7205
L9104 7280
L9142 7317
L9179 7336
L9254 7336
L9292 7317
L9329 7280
L9348 7205
L9348 7074
L9329 6999
L9292 6961
L9254 6942
" />
<path d="M8917 7336
L8917 6942
L8692 7336
L8692 6942
" />
<path d="M8298 7336
L8523 7336
" />
<path d="M8411 7336
L8411 6942
L8448 6999
L8486 7036
L8523 7055
" />
<path d="M11311 12860
L11311 12466
L11217 12466
L11161 12485
L11123 12523
L11104 12560
L11086 12635
L11086 12691
L11104 12766
L11123 12804
L11161 12841
L11217 12860
L11311 12860
" />
<path d="M10711 12860
L10936 12860
" />
<path d="M10823 12860
L10823 12466
L10861 12523
L10898 12560
L10936 12579
" />
</g>
<g style="fill:#008484; fill-opacity:0.0; 
stroke:#008484; stroke-width:59.0551; stroke-opacity:1; 
stroke-linecap:round; stroke-linejoin:round;">
<path d="M9873 10610
L9873 10216
" />
<path d="M9648 10610
L9817 10385
" />
<path d="M9648 10216
L9873 10441
" />
</g>
<g style="fill:#C2C200; fill-opacity:0.0; 
stroke:#C2C200; stroke-width:59.0551; stroke-opacity:1; 
stroke-linecap:round; stroke-linejoin:round;">
<path d="M8311 12860
L8311 12466
L8217 12466
L8161 12485
L8123 12523
L8104 12560
L8086 12635
L8086 12691
L8104 12766
L8123 12804
L8161 12841
L8217 12860
L8311 12860
" />
<path d="M7936 12504
L7917 12485
L7879 12466
L7786 12466
L7748 12485
L7729 12504
L7711 12541
L7711 12579
L7729 12635
L7954 12860
L7711 12860
" />
</g>
<g style="fill:#008484; fill-opacity:0.0; 
stroke:#008484; stroke-width:59.0551; stroke-opacity:1; 
stroke-linecap:round; stroke-linejoin:round;">
<path d="M9373 12110
L9373 11716
" />
<path d="M9148 12110
L9317 11885
" />
<path d="M9148 11716
L9373 11941
" />
</g>
<g style="fill:#C2C200; fill-opacity:0.0; 
stroke:#C2C200; stroke-width:59.0551; stroke-opacity:1; 
stroke-linecap:round; stroke-linejoin:round;">
<path d="M17304 10720
L17323 10757
L17361 10795
L17417 10851
L17436 10888
L17436 10926
" />
<path d="M17342 10907
L17361 10944
L17398 10982
L17473 11001
L17604 11001
L17679 10982
L17717 10944
L17736 10907
L17736 10832
L17717 10795
L17679 10757
L17604 10738
L17473 10738
L17398 10757
L17361 10795
L17342 10832
L17342 10907
" />
<path d="M17342 10363
L17342 10588
" />
<path d="M17342 10476
L17736 10476
L17679 10513
L17642 10551
L17623 10588
" />
<path d="M1304 10720
L1323 10757
L1361 10795
L1417 10851
L1436 10888
L1436 10926
" />
<path d="M1342 10907
L1361 10944
L1398 10982
L1473 11001
L1604 11001
L1679 10982
L1717 10944
L1736 10907
L1736 10832
L1717 10795
L1679 10757
L1604 10738
L1473 10738
L1398 10757
L1361 10795
L1342 10832
L1342 10907
" />
<path d="M1698 10588
L1717 10570
L1736 10532
L1736 10438
L1717 10401
L1698 10382
L1661 10363
L1623 10363
L1567 10382
L1342 10607
L1342 10363
" />
<path d="M14586 5323
L14604 5341
L14661 5360
L14698 5360
L14754 5341
L14792 5304
L14811 5266
L14829 5191
L14829 5135
L14811 5060
L14792 5023
L14754 4985
L14698 4966
L14661 4966
L14604 4985
L14586 5004
" />
<path d="M14211 5360
L14436 5360
" />
<path d="M14323 5360
L14323 4966
L14361 5023
L14398 5060
L14436 5079
" />
<path d="M4086 5323
L4104 5341
L4161 5360
L4198 5360
L4254 5341
L4292 5304
L4311 5266
L4329 5191
L4329 5135
L4311 5060
L4292 5023
L4254 4985
L4198 4966
L4161 4966
L4104 4985
L4086 5004
" />
<path d="M3936 5004
L3917 4985
L3879 4966
L3786 4966
L3748 4985
L3729 5004
L3711 5041
L3711 5079
L3729 5135
L3954 5360
L3711 5360
" />
<path d="M842 5748
L1029 5879
" />
<path d="M842 5973
L1236 5973
L1236 5823
L1217 5785
L1198 5766
L1161 5748
L1104 5748
L1067 5766
L1048 5785
L1029 5823
L1029 5973
" />
<path d="M1104 5410
L842 5410
" />
<path d="M1254 5504
L973 5598
L973 5354
" />
<path d="M4842 5748
L5029 5879
" />
<path d="M4842 5973
L5236 5973
L5236 5823
L5217 5785
L5198 5766
L5161 5748
L5104 5748
L5067 5766
L5048 5785
L5029 5823
L5029 5973
" />
<path d="M5236 5616
L5236 5373
L5086 5504
L5086 5448
L5067 5410
L5048 5391
L5011 5373
L4917 5373
L4879 5391
L4861 5410
L4842 5448
L4842 5560
L4861 5598
L4879 5616
" />
<path d="M11342 5748
L11529 5879
" />
<path d="M11342 5973
L11736 5973
L11736 5823
L11717 5785
L11698 5766
L11661 5748
L11604 5748
L11567 5766
L11548 5785
L11529 5823
L11529 5973
" />
<path d="M11698 5598
L11717 5579
L11736 5541
L11736 5448
L11717 5410
L11698 5391
L11661 5373
L11623 5373
L11567 5391
L11342 5616
L11342 5373
" />
<path d="M15342 5748
L15529 5879
" />
<path d="M15342 5973
L15736 5973
L15736 5823
L15717 5785
L15698 5766
L15661 5748
L15604 5748
L15567 5766
L15548 5785
L15529 5823
L15529 5973
" />
<path d="M15342 5373
L15342 5598
" />
<path d="M15342 5485
L15736 5485
L15679 5523
L15642 5560
L15623 5598
" />
</g>
<g style="fill:#008484; fill-opacity:0.0; 
stroke:#008484; stroke-width:59.0551; stroke-opacity:1; 
stroke-linecap:round; stroke-linejoin:round;">
<path d="M7248 1607
L10792 1607
" />
<path d="M7248 229
L10792 229
" />
<path d="M10792 229
L10792 5938
" />
<path d="M10792 5938
L7248 5938
" />
<path d="M7248 5938
L7248 229
" />
<path d="M10036.2 11773.1 A1147.83 1147.83 0.0 1 0 10042.2 10582.2 " />
<path d="M10036 10591
L10036 11773
" />
<circle cx="11020.5" cy="11182.5" r="991.313" /> 
<path d="M9004.72 10592 A1147.83 1147.83 0.0 1 0 8998.77 11782.9 " />
<path d="M9004 11773
L9004 10591
" />
<circle cx="8020.47" cy="11182.5" r="991.313" /> 
<circle cx="15020.5" cy="8792.76" r="157.48" /> 
<circle cx="15020.5" cy="10682.5" r="1574.8" /> 
<circle cx="15020.5" cy="10682.5" r="2204.72" /> 
<circle cx="4020.47" cy="8792.76" r="157.48" /> 
<circle cx="4020.47" cy="10682.5" r="1574.8" /> 
<circle cx="4020.47" cy="10682.5" r="2204.72" /> 
<path d="M14498 5698
L14498 7666
" />
<path d="M14443 5701
L14443 7663
" />
<path d="M14388 5708
L14388 6645
" />
<path d="M14388 6719
L14388 7656
" />
<path d="M14333 5717
L14333 6489
" />
<path d="M14333 6875
L14333 7647
" />
<path d="M14278 5730
L14278 6423
" />
<path d="M14278 6941
L14278 7634
" />
<path d="M14223 5746
L14223 6381
" />
<path d="M14223 6983
L14223 7618
" />
<path d="M14168 5766
L14168 6353
" />
<path d="M14168 7011
L14168 7598
" />
<path d="M14112 5790
L14112 6336
" />
<path d="M14112 7028
L14112 7574
" />
<path d="M14057 5817
L14057 6328
" />
<path d="M14057 7036
L14057 7547
" />
<path d="M14002 5850
L14002 6329
" />
<path d="M14002 7035
L14002 7514
" />
<path d="M13947 5887
L13947 6339
" />
<path d="M13947 7025
L13947 7477
" />
<path d="M13892 5931
L13892 6358
" />
<path d="M13892 7006
L13892 7433
" />
<path d="M13837 5981
L13837 6389
" />
<path d="M13837 6975
L13837 7383
" />
<path d="M13782 6040
L13782 6435
" />
<path d="M13782 6929
L13782 7324
" />
<path d="M13727 6110
L13727 6509
" />
<path d="M13727 6855
L13727 7254
" />
<path d="M13672 6197
L13672 7167
" />
<path d="M13616 6310
L13616 7054
" />
<path d="M13561 6496
L13561 6868
" />
<circle cx="14036.2" cy="6682.53" r="354.331" /> 
<circle cx="14528.3" cy="6682.53" r="999.016" /> 
<path d="M4042 7666
L4042 5698
" />
<path d="M4097 7663
L4097 5701
" />
<path d="M4152 7656
L4152 6719
" />
<path d="M4152 6645
L4152 5708
" />
<path d="M4207 7647
L4207 6875
" />
<path d="M4207 6489
L4207 5717
" />
<path d="M4262 7634
L4262 6941
" />
<path d="M4262 6423
L4262 5730
" />
<path d="M4317 7618
L4317 6983
" />
<path d="M4317 6381
L4317 5746
" />
<path d="M4372 7598
L4372 7011
" />
<path d="M4372 6353
L4372 5766
" />
<path d="M4427 7574
L4427 7028
" />
<path d="M4427 6336
L4427 5790
" />
<path d="M4483 7547
L4483 7036
" />
<path d="M4483 6328
L4483 5817
" />
<path d="M4538 7514
L4538 7035
" />
<path d="M4538 6329
L4538 5850
" />
<path d="M4593 7477
L4593 7025
" />
<path d="M4593 6339
L4593 5887
" />
<path d="M4648 7433
L4648 7006
" />
<path d="M4648 6358
L4648 5931
" />
<path d="M4703 7383
L4703 6975
" />
<path d="M4703 6389
L4703 5981
" />
<path d="M4758 7324
L4758 6929
" />
<path d="M4758 6435
L4758 6040
" />
<path d="M4813 7254
L4813 6855
" />
<path d="M4813 6509
L4813 6110
" />
<path d="M4868 7167
L4868 6197
" />
<path d="M4924 7054
L4924 6310
" />
<path d="M4979 6868
L4979 6496
" />
<circle cx="4504.72" cy="6682.53" r="354.331" /> 
<circle cx="4012.6" cy="6682.53" r="999.016" /> 
<path d="M1520 4682
L1520 6682
" />
<path d="M1520 6682
L2520 6682
" />
<path d="M2520 6682
L2520 4682
" />
<path d="M2520 4682
L1520 4682
" />
<path d="M2020 4682
L2020 4182
" />
<path d="M2020 6682
L2020 7182
" />
<path d="M5520 4682
L5520 6682
" />
<path d="M5520 6682
L6520 6682
" />
<path d="M6520 6682
L6520 4682
" />
<path d="M6520 4682
L5520 4682
" />
<path d="M6020 4682
L6020 4182
" />
<path d="M6020 6682
L6020 7182
" />
<path d="M12020 4682
L12020 6682
" />
<path d="M12020 6682
L13020 6682
" />
<path d="M13020 6682
L13020 4682
" />
<path d="M13020 4682
L12020 4682
" />
<path d="M12520 4682
L12520 4182
" />
<path d="M12520 6682
L12520 7182
" />
<path d="M16020 4682
L16020 6682
" />
<path d="M16020 6682
L17020 6682
" />
<path d="M17020 6682
L17020 4682
" />
<path d="M17020 4682
L16020 4682
" />
<path d="M16520 4682
L16520 4182
" />
<path d="M16520 6682
L16520 7182
" />
</g>
<g style="fill:#840000; fill-opacity:0.0; 
stroke:#840000; stroke-width:59.0551; stroke-opacity:1; 
stroke-linecap:round; stroke-linejoin:round;">
</g>
<g style="fill:#840000; fill-opacity:0.0; 
stroke:#840000; stroke-width:0; stroke-opacity:1; 
stroke-linecap:round; stroke-linejoin:round;">
</g>
<g style="fill:#840000; fill-opacity:1.0; 
stroke:#840000; stroke-width:0; stroke-opacity:1; 
stroke-linecap:round; stroke-linejoin:round;">
<polyline style="fill-rule:evenodd;"
points="9709,4934
8331,4934
8331,6312
9709,6312
9709,4934
" /> 
<polyline style="fill-rule:evenodd;"
points="9709,2572
8331,2572
8331,3950
9709,3950
9709,2572
" /> 
<polyline style="fill-rule:evenodd;"
points="11559,3753
10181,3753
10181,5131
11559,5131
11559,3753
" /> 
<polyline style="fill-rule:evenodd;"
points="10894,10788
10146,10788
10146,11576
10894,11576
10894,10788
" /> 
<circle cx="11520.5" cy="11182.5" r="374.016" /> 
</g>
<g style="fill:#840000; fill-opacity:1.0; 
stroke:#840000; stroke-width:39.3701; stroke-opacity:1; 
stroke-linecap:round; stroke-linejoin:round;">
</g>
<g style="fill:#840000; fill-opacity:1.0; 
stroke:#840000; stroke-width:0; stroke-opacity:1; 
stroke-linecap:round; stroke-linejoin:round;">
<polyline style="fill-rule:evenodd;"
points="8146,11576
8894,11576
8894,10788
8146,10788
8146,11576
" /> 
<circle cx="7520.47" cy="11182.5" r="374.016" /> 
</g>
<g style="fill:#840000; fill-opacity:1.0; 
stroke:#840000; stroke-width:39.3701; stroke-opacity:1; 
stroke-linecap:round; stroke-linejoin:round;">
</g>
<g style="fill:#840000; fill-opacity:1.0; 
stroke:#840000; stroke-width:551.181; stroke-opacity:1; 
stroke-linecap:round; stroke-linejoin:round;">
</g>
<g style="fill:#840000; fill-opacity:0.0; 
stroke:#840000; stroke-width:551.181; stroke-opacity:1; 
stroke-linecap:round; stroke-linejoin:round;">
<path d="M14803 10682
L15237 10682
" />
<path d="M14803 9895
L15237 9895
" />
<path d="M14803 11469
L15237 11469
" />
<path d="M3803 10682
L4237 10682
" />
<path d="M3803 9895
L4237 9895
" />
<path d="M3803 11469
L4237 11469
" />
</g>
<g style="fill:#840000; fill-opacity:0.0; 
stroke:#840000; stroke-width:0; stroke-opacity:1; 
stroke-linecap:round; stroke-linejoin:round;">
</g>
<g style="fill:#840000; fill-opacity:1.0; 
stroke:#840000; stroke-width:0; stroke-opacity:1; 
stroke-linecap:round; stroke-linejoin:round;">
<polyline style="fill-rule:evenodd;"
points="15276,6938
15276,6426
14764,6426
14764,6938
15276,6938
" /> 
<circle cx="14036.2" cy="6682.53" r="255.906" /> 
</g>
<g style="fill:#840000; fill-opacity:1.0; 
stroke:#840000; stroke-width:39.3701; stroke-opacity:1; 
stroke-linecap:round; stroke-linejoin:round;">
</g>
<g style="fill:#840000; fill-opacity:1.0; 
stroke:#840000; stroke-width:0; stroke-opacity:1; 
stroke-linecap:round; stroke-linejoin:round;">
<polyline style="fill-rule:evenodd;"
points="3264,6426
3264,6938
3776,6938
3776,6426
3264,6426
" /> 
<circle cx="4504.72" cy="6682.53" r="255.906" /> 
</g>
<g style="fill:#840000; fill-opacity:1.0; 
stroke:#840000; stroke-width:39.3701; stroke-opacity:1; 
stroke-linecap:round; stroke-linejoin:round;">
</g>
<g style="fill:#840000; fill-opacity:1.0; 
stroke:#840000; stroke-width:0; stroke-opacity:1; 
stroke-linecap:round; stroke-linejoin:round;">
<circle cx="2020.47" cy="3682.53" r="393.5" /> 
</g>
<g style="fill:#840000; fill-opacity:1.0; 
stroke:#840000; stroke-width:39.3701; stroke-opacity:1; 
stroke-linecap:round; stroke-linejoin:round;">
</g>
<g style="fill:#840000; fill-opacity:1.0; 
stroke:#840000; stroke-width:0; stroke-opacity:1; 
stroke-linecap:round; stroke-linejoin:round;">
<circle cx="2020.47" cy="7682.53" r="393.5" /> 
</g>
<g style="fill:#840000; fill-opacity:1.0; 
stroke:#840000; stroke-width:39.3701; stroke-opacity:1; 
stroke-linecap:round; stroke-linejoin:round;">
</g>
<g style="fill:#840000; fill-opacity:1.0; 
stroke:#840000; stroke-width:0; stroke-opacity:1; 
stroke-linecap:round; stroke-linejoin:round;">
<circle cx="6020.47" cy="3682.53" r="393.5" /> 
</g>
<g style="fill:#840000; fill-opacity:1.0; 
stroke:#840000; stroke-width:39.3701; stroke-opacity:1; 
stroke-linecap:round; stroke-linejoin:round;">
</g>
<g style="fill:#840000; fill-opacity:1.0; 
stroke:#840000; stroke-width:0; stroke-opacity:1; 
stroke-linecap:round; stroke-linejoin:round;">
<circle cx="6020.47" cy="7682.53" r="393.5" /> 
</g>
<g style="fill:#840000; fill-opacity:1.0; 
stroke:#840000; stroke-width:39.3701; stroke-opacity:1; 
stroke-linecap:round; stroke-linejoin:round;">
</g>
<g style="fill:#840000; fill-opacity:1.0; 
stroke:#840000; stroke-width:0; stroke-opacity:1; 
stroke-linecap:round; stroke-linejoin:round;">
<circle cx="12520.5" cy="3682.53" r="393.5" /> 
</g>
<g style="fill:#840000; fill-opacity:1.0; 
stroke:#840000; stroke-width:39.3701; stroke-opacity:1; 
stroke-linecap:round; stroke-linejoin:round;">
</g>
<g style="fill:#840000; fill-opacity:1.0; 
stroke:#840000; stroke-width:0; stroke-opacity:1; 
stroke-linecap:round; stroke-linejoin:round;">
<circle cx="12520.5" cy="7682.53" r="393.5" /> 
</g>
<g style="fill:#840000; fill-opacity:1.0; 
stroke:#840000; stroke-width:39.3701; stroke-opacity:1; 
stroke-linecap:round; stroke-linejoin:round;">
</g>
<g style="fill:#840000; fill-opacity:1.0; 
stroke:#840000; stroke-width:0; stroke-opacity:1; 
stroke-linecap:round; stroke-linejoin:round;">
<circle cx="16520.5" cy="3682.53" r="393.5" /> 
</g>
<g style="fill:#840000; fill-opacity:1.0; 
stroke:#840000; stroke-width:39.3701; stroke-opacity:1; 
stroke-linecap:round; stroke-linejoin:round;">
</g>
<g style="fill:#840000; fill-opacity:1.0; 
stroke:#840000; stroke-width:0; stroke-opacity:1; 
stroke-linecap:round; stroke-linejoin:round;">
<circle cx="16520.5" cy="7682.53" r="393.5" /> 
</g>
<g style="fill:#840000; fill-opacity:1.0; 
stroke:#840000; stroke-width:39.3701; stroke-opacity:1; 
stroke-linecap:round; stroke-linejoin:round;">
</g> 
</svg>
