<?xml version="1.0" standalone="no"?>
 <!DOCTYPE svg PUBLIC "-//W3C//DTD SVG 1.1//EN" 
 "http://www.w3.org/Graphics/SVG/1.1/DTD/svg11.dtd"> 
<svg xmlns="http://www.w3.org/2000/svg" version="1.1" 
    width="4.7117" height="3.60934" viewBox="0 0 18550 14210 ">
<title>SVG Picture created as multivibrator-F.SilkS.svg date 2017/05/11 10:06:44 </title>
  <desc>Picture generated by PCBNEW </desc>
<g style="fill:#000000; fill-opacity:1;stroke:#000000; stroke-opacity:1;
stroke-linecap:round; stroke-linejoin:round; "
 transform="translate(0 0) scale(1 1)">
</g>
<g style="fill:#C2C200; fill-opacity:0.0; 
stroke:#C2C200; stroke-width:-0.000393701; stroke-opacity:1; 
stroke-linecap:round; stroke-linejoin:round;">
</g>
<g style="fill:#C2C200; fill-opacity:0.0; 
stroke:#C2C200; stroke-width:59.0551; stroke-opacity:1; 
stroke-linecap:round; stroke-linejoin:round;">
<path d="M18520 14182
L20 14182
" />
<path d="M20 1682
L18520 1682
" />
<path d="M18520 14182
L18520 1682
" />
<path d="M20 1682
L20 14182
" />
<path d="M9498 7299
L9517 7317
L9573 7336
L9611 7336
L9667 7317
L9704 7280
L9723 7242
L9742 7167
L9742 7111
L9723 7036
L9704 6999
L9667 6961
L9611 6942
L9573 6942
L9517 6961
L9498 6980
" />
<path d="M9254 6942
L9179 6942
L9142 6961
L9104 6999
L9086 7074
L9086 7205
L9104 7280
L9142 7317
L9179 7336
L9254 7336
L9292 7317
L9329 7280
L9348 7205
L9348 7074
L9329 6999
L9292 6961
L9254 6942
" />
<path d="M8917 7336
L8917 6942
L8692 7336
L8692 6942
" />
<path d="M8298 7336
L8523 7336
" />
<path d="M8411 7336
L8411 6942
L8448 6999
L8486 7036
L8523 7055
" />
<path d="M11311 12860
L11311 12466
L11217 12466
L11161 12485
L11123 12523
L11104 12560
L11086 12635
L11086 12691
L11104 12766
L11123 12804
L11161 12841
L11217 12860
L11311 12860
" />
<path d="M10711 12860
L10936 12860
" />
<path d="M10823 12860
L10823 12466
L10861 12523
L10898 12560
L10936 12579
" />
</g>
<g style="fill:#008484; fill-opacity:0.0; 
stroke:#008484; stroke-width:59.0551; stroke-opacity:1; 
stroke-linecap:round; stroke-linejoin:round;">
<path d="M9873 10610
L9873 10216
" />
<path d="M9648 10610
L9817 10385
" />
<path d="M9648 10216
L9873 10441
" />
</g>
<g style="fill:#C2C200; fill-opacity:0.0; 
stroke:#C2C200; stroke-width:59.0551; stroke-opacity:1; 
stroke-linecap:round; stroke-linejoin:round;">
<path d="M8311 12860
L8311 12466
L8217 12466
L8161 12485
L8123 12523
L8104 12560
L8086 12635
L8086 12691
L8104 12766
L8123 12804
L8161 12841
L8217 12860
L8311 12860
" />
<path d="M7936 12504
L7917 12485
L7879 12466
L7786 12466
L7748 12485
L7729 12504
L7711 12541
L7711 12579
L7729 12635
L7954 12860
L7711 12860
" />
</g>
<g style="fill:#008484; fill-opacity:0.0; 
stroke:#008484; stroke-width:59.0551; stroke-opacity:1; 
stroke-linecap:round; stroke-linejoin:round;">
<path d="M9373 12110
L9373 11716
" />
<path d="M9148 12110
L9317 11885
" />
<path d="M9148 11716
L9373 11941
" />
</g>
<g style="fill:#C2C200; fill-opacity:0.0; 
stroke:#C2C200; stroke-width:59.0551; stroke-opacity:1; 
stroke-linecap:round; stroke-linejoin:round;">
<path d="M14586 6323
L14604 6341
L14661 6360
L14698 6360
L14754 6341
L14792 6304
L14811 6266
L14829 6191
L14829 6135
L14811 6060
L14792 6023
L14754 5985
L14698 5966
L14661 5966
L14604 5985
L14586 6004
" />
<path d="M14211 6360
L14436 6360
" />
<path d="M14323 6360
L14323 5966
L14361 6023
L14398 6060
L14436 6079
" />
<path d="M4086 6323
L4104 6341
L4161 6360
L4198 6360
L4254 6341
L4292 6304
L4311 6266
L4329 6191
L4329 6135
L4311 6060
L4292 6023
L4254 5985
L4198 5966
L4161 5966
L4104 5985
L4086 6004
" />
<path d="M3936 6004
L3917 5985
L3879 5966
L3786 5966
L3748 5985
L3729 6004
L3711 6041
L3711 6079
L3729 6135
L3954 6360
L3711 6360
" />
<path d="M842 5748
L1029 5879
" />
<path d="M842 5973
L1236 5973
L1236 5823
L1217 5785
L1198 5766
L1161 5748
L1104 5748
L1067 5766
L1048 5785
L1029 5823
L1029 5973
" />
<path d="M1104 5410
L842 5410
" />
<path d="M1254 5504
L973 5598
L973 5354
" />
<path d="M4842 5748
L5029 5879
" />
<path d="M4842 5973
L5236 5973
L5236 5823
L5217 5785
L5198 5766
L5161 5748
L5104 5748
L5067 5766
L5048 5785
L5029 5823
L5029 5973
" />
<path d="M5236 5616
L5236 5373
L5086 5504
L5086 5448
L5067 5410
L5048 5391
L5011 5373
L4917 5373
L4879 5391
L4861 5410
L4842 5448
L4842 5560
L4861 5598
L4879 5616
" />
<path d="M11342 5748
L11529 5879
" />
<path d="M11342 5973
L11736 5973
L11736 5823
L11717 5785
L11698 5766
L11661 5748
L11604 5748
L11567 5766
L11548 5785
L11529 5823
L11529 5973
" />
<path d="M11698 5598
L11717 5579
L11736 5541
L11736 5448
L11717 5410
L11698 5391
L11661 5373
L11623 5373
L11567 5391
L11342 5616
L11342 5373
" />
<path d="M15342 5748
L15529 5879
" />
<path d="M15342 5973
L15736 5973
L15736 5823
L15717 5785
L15698 5766
L15661 5748
L15604 5748
L15567 5766
L15548 5785
L15529 5823
L15529 5973
" />
<path d="M15342 5373
L15342 5598
" />
<path d="M15342 5485
L15736 5485
L15679 5523
L15642 5560
L15623 5598
" />
<path d="M16206 11220
L16225 11257
L16262 11295
L16318 11351
L16337 11388
L16337 11426
" />
<path d="M16243 11407
L16262 11444
L16300 11482
L16375 11501
L16506 11501
L16581 11482
L16618 11444
L16637 11407
L16637 11332
L16618 11295
L16581 11257
L16506 11238
L16375 11238
L16300 11257
L16262 11295
L16243 11332
L16243 11407
" />
<path d="M16243 10863
L16243 11088
" />
<path d="M16243 10976
L16637 10976
L16581 11013
L16543 11051
L16525 11088
" />
<path d="M4706 11220
L4725 11257
L4762 11295
L4818 11351
L4837 11388
L4837 11426
" />
<path d="M4743 11407
L4762 11444
L4800 11482
L4875 11501
L5006 11501
L5081 11482
L5118 11444
L5137 11407
L5137 11332
L5118 11295
L5081 11257
L5006 11238
L4875 11238
L4800 11257
L4762 11295
L4743 11332
L4743 11407
" />
<path d="M5100 11088
L5118 11070
L5137 11032
L5137 10938
L5118 10901
L5100 10882
L5062 10863
L5025 10863
L4968 10882
L4743 11107
L4743 10863
" />
</g>
<g style="fill:#008484; fill-opacity:0.0; 
stroke:#008484; stroke-width:59.0551; stroke-opacity:1; 
stroke-linecap:round; stroke-linejoin:round;">
<path d="M7248 1607
L10792 1607
" />
<path d="M7248 229
L10792 229
" />
<path d="M10792 229
L10792 5938
" />
<path d="M10792 5938
L7248 5938
" />
<path d="M7248 5938
L7248 229
" />
<path d="M10036.2 11773.1 A1147.83 1147.83 0.0 1 0 10042.2 10582.2 " />
<path d="M10036 10591
L10036 11773
" />
<circle cx="11020.5" cy="11182.5" r="991.313" /> 
<path d="M9004.72 10592 A1147.83 1147.83 0.0 1 0 8998.77 11782.9 " />
<path d="M9004 11773
L9004 10591
" />
<circle cx="8020.47" cy="11182.5" r="991.313" /> 
<path d="M14498 6698
L14498 8666
" />
<path d="M14443 6701
L14443 8663
" />
<path d="M14388 6708
L14388 7645
" />
<path d="M14388 7719
L14388 8656
" />
<path d="M14333 6717
L14333 7489
" />
<path d="M14333 7875
L14333 8647
" />
<path d="M14278 6730
L14278 7423
" />
<path d="M14278 7941
L14278 8634
" />
<path d="M14223 6746
L14223 7381
" />
<path d="M14223 7983
L14223 8618
" />
<path d="M14168 6766
L14168 7353
" />
<path d="M14168 8011
L14168 8598
" />
<path d="M14112 6790
L14112 7336
" />
<path d="M14112 8028
L14112 8574
" />
<path d="M14057 6817
L14057 7328
" />
<path d="M14057 8036
L14057 8547
" />
<path d="M14002 6850
L14002 7329
" />
<path d="M14002 8035
L14002 8514
" />
<path d="M13947 6887
L13947 7339
" />
<path d="M13947 8025
L13947 8477
" />
<path d="M13892 6931
L13892 7358
" />
<path d="M13892 8006
L13892 8433
" />
<path d="M13837 6981
L13837 7389
" />
<path d="M13837 7975
L13837 8383
" />
<path d="M13782 7040
L13782 7435
" />
<path d="M13782 7929
L13782 8324
" />
<path d="M13727 7110
L13727 7509
" />
<path d="M13727 7855
L13727 8254
" />
<path d="M13672 7197
L13672 8167
" />
<path d="M13616 7310
L13616 8054
" />
<path d="M13561 7496
L13561 7868
" />
<circle cx="14036.2" cy="7682.53" r="354.331" /> 
<circle cx="14528.3" cy="7682.53" r="999.016" /> 
<path d="M4042 8666
L4042 6698
" />
<path d="M4097 8663
L4097 6701
" />
<path d="M4152 8656
L4152 7719
" />
<path d="M4152 7645
L4152 6708
" />
<path d="M4207 8647
L4207 7875
" />
<path d="M4207 7489
L4207 6717
" />
<path d="M4262 8634
L4262 7941
" />
<path d="M4262 7423
L4262 6730
" />
<path d="M4317 8618
L4317 7983
" />
<path d="M4317 7381
L4317 6746
" />
<path d="M4372 8598
L4372 8011
" />
<path d="M4372 7353
L4372 6766
" />
<path d="M4427 8574
L4427 8028
" />
<path d="M4427 7336
L4427 6790
" />
<path d="M4483 8547
L4483 8036
" />
<path d="M4483 7328
L4483 6817
" />
<path d="M4538 8514
L4538 8035
" />
<path d="M4538 7329
L4538 6850
" />
<path d="M4593 8477
L4593 8025
" />
<path d="M4593 7339
L4593 6887
" />
<path d="M4648 8433
L4648 8006
" />
<path d="M4648 7358
L4648 6931
" />
<path d="M4703 8383
L4703 7975
" />
<path d="M4703 7389
L4703 6981
" />
<path d="M4758 8324
L4758 7929
" />
<path d="M4758 7435
L4758 7040
" />
<path d="M4813 8254
L4813 7855
" />
<path d="M4813 7509
L4813 7110
" />
<path d="M4868 8167
L4868 7197
" />
<path d="M4924 8054
L4924 7310
" />
<path d="M4979 7868
L4979 7496
" />
<circle cx="4504.72" cy="7682.53" r="354.331" /> 
<circle cx="4012.6" cy="7682.53" r="999.016" /> 
<path d="M1520 4682
L1520 6682
" />
<path d="M1520 6682
L2520 6682
" />
<path d="M2520 6682
L2520 4682
" />
<path d="M2520 4682
L1520 4682
" />
<path d="M2020 4682
L2020 4182
" />
<path d="M2020 6682
L2020 7182
" />
<path d="M5520 4682
L5520 6682
" />
<path d="M5520 6682
L6520 6682
" />
<path d="M6520 6682
L6520 4682
" />
<path d="M6520 4682
L5520 4682
" />
<path d="M6020 4682
L6020 4182
" />
<path d="M6020 6682
L6020 7182
" />
<path d="M12020 4682
L12020 6682
" />
<path d="M12020 6682
L13020 6682
" />
<path d="M13020 6682
L13020 4682
" />
<path d="M13020 4682
L12020 4682
" />
<path d="M12520 4682
L12520 4182
" />
<path d="M12520 6682
L12520 7182
" />
<path d="M16020 4682
L16020 6682
" />
<path d="M16020 6682
L17020 6682
" />
<path d="M17020 6682
L17020 4682
" />
<path d="M17020 4682
L16020 4682
" />
<path d="M16520 4682
L16520 4182
" />
<path d="M16520 6682
L16520 7182
" />
</g>
<g style="fill:#008484; fill-opacity:0.0; 
stroke:#008484; stroke-width:47.2441; stroke-opacity:1; 
stroke-linecap:round; stroke-linejoin:round;">
<path d="M14292 11891
L14292 10473
" />
<path d="M14292.1 11891.2 A1016.21 1016.21 0.0 0 0 14578.4 12097.6 " />
<path d="M15453.1 12110.2 A1023.62 1023.62 0.0 0 0 16044.1 11182.5 " />
<path d="M16044.1 11182.5 A1023.62 1023.62 0.0 0 0 15453.1 10254.8 " />
<path d="M14578.4 10267.5 A1016.21 1016.21 0.0 0 0 14292.1 10473.9 " />
<path d="M2792 11891
L2792 10473
" />
<path d="M2792.13 11891.2 A1016.21 1016.21 0.0 0 0 3078.43 12097.6 " />
<path d="M3953.07 12110.2 A1023.62 1023.62 0.0 0 0 4544.09 11182.5 " />
<path d="M4544.09 11182.5 A1023.62 1023.62 0.0 0 0 3953.07 10254.8 " />
<path d="M3078.43 10267.5 A1016.21 1016.21 0.0 0 0 2792.13 10473.9 " />
</g>
<g style="fill:#840000; fill-opacity:0.0; 
stroke:#840000; stroke-width:47.2441; stroke-opacity:1; 
stroke-linecap:round; stroke-linejoin:round;">
</g>
<g style="fill:#840000; fill-opacity:0.0; 
stroke:#840000; stroke-width:0; stroke-opacity:1; 
stroke-linecap:round; stroke-linejoin:round;">
</g>
<g style="fill:#840000; fill-opacity:1.0; 
stroke:#840000; stroke-width:0; stroke-opacity:1; 
stroke-linecap:round; stroke-linejoin:round;">
<polyline style="fill-rule:evenodd;"
points="9709,4934
8331,4934
8331,6312
9709,6312
9709,4934
" /> 
<polyline style="fill-rule:evenodd;"
points="9709,2572
8331,2572
8331,3950
9709,3950
9709,2572
" /> 
<polyline style="fill-rule:evenodd;"
points="11559,3753
10181,3753
10181,5131
11559,5131
11559,3753
" /> 
<polyline style="fill-rule:evenodd;"
points="10894,10788
10146,10788
10146,11576
10894,11576
10894,10788
" /> 
<circle cx="11520.5" cy="11182.5" r="374.016" /> 
</g>
<g style="fill:#840000; fill-opacity:1.0; 
stroke:#840000; stroke-width:39.3701; stroke-opacity:1; 
stroke-linecap:round; stroke-linejoin:round;">
</g>
<g style="fill:#840000; fill-opacity:1.0; 
stroke:#840000; stroke-width:0; stroke-opacity:1; 
stroke-linecap:round; stroke-linejoin:round;">
<polyline style="fill-rule:evenodd;"
points="8146,11576
8894,11576
8894,10788
8146,10788
8146,11576
" /> 
<circle cx="7520.47" cy="11182.5" r="374.016" /> 
</g>
<g style="fill:#840000; fill-opacity:1.0; 
stroke:#840000; stroke-width:39.3701; stroke-opacity:1; 
stroke-linecap:round; stroke-linejoin:round;">
</g>
<g style="fill:#840000; fill-opacity:1.0; 
stroke:#840000; stroke-width:0; stroke-opacity:1; 
stroke-linecap:round; stroke-linejoin:round;">
<polyline style="fill-rule:evenodd;"
points="15276,7938
15276,7426
14764,7426
14764,7938
15276,7938
" /> 
<circle cx="14036.2" cy="7682.53" r="255.906" /> 
</g>
<g style="fill:#840000; fill-opacity:1.0; 
stroke:#840000; stroke-width:39.3701; stroke-opacity:1; 
stroke-linecap:round; stroke-linejoin:round;">
</g>
<g style="fill:#840000; fill-opacity:1.0; 
stroke:#840000; stroke-width:0; stroke-opacity:1; 
stroke-linecap:round; stroke-linejoin:round;">
<polyline style="fill-rule:evenodd;"
points="3264,7426
3264,7938
3776,7938
3776,7426
3264,7426
" /> 
<circle cx="4504.72" cy="7682.53" r="255.906" /> 
</g>
<g style="fill:#840000; fill-opacity:1.0; 
stroke:#840000; stroke-width:39.3701; stroke-opacity:1; 
stroke-linecap:round; stroke-linejoin:round;">
</g>
<g style="fill:#840000; fill-opacity:1.0; 
stroke:#840000; stroke-width:0; stroke-opacity:1; 
stroke-linecap:round; stroke-linejoin:round;">
<circle cx="2020.47" cy="3682.53" r="393.5" /> 
</g>
<g style="fill:#840000; fill-opacity:1.0; 
stroke:#840000; stroke-width:39.3701; stroke-opacity:1; 
stroke-linecap:round; stroke-linejoin:round;">
</g>
<g style="fill:#840000; fill-opacity:1.0; 
stroke:#840000; stroke-width:0; stroke-opacity:1; 
stroke-linecap:round; stroke-linejoin:round;">
<circle cx="2020.47" cy="7682.53" r="393.5" /> 
</g>
<g style="fill:#840000; fill-opacity:1.0; 
stroke:#840000; stroke-width:39.3701; stroke-opacity:1; 
stroke-linecap:round; stroke-linejoin:round;">
</g>
<g style="fill:#840000; fill-opacity:1.0; 
stroke:#840000; stroke-width:0; stroke-opacity:1; 
stroke-linecap:round; stroke-linejoin:round;">
<circle cx="6020.47" cy="3682.53" r="393.5" /> 
</g>
<g style="fill:#840000; fill-opacity:1.0; 
stroke:#840000; stroke-width:39.3701; stroke-opacity:1; 
stroke-linecap:round; stroke-linejoin:round;">
</g>
<g style="fill:#840000; fill-opacity:1.0; 
stroke:#840000; stroke-width:0; stroke-opacity:1; 
stroke-linecap:round; stroke-linejoin:round;">
<circle cx="6020.47" cy="7682.53" r="393.5" /> 
</g>
<g style="fill:#840000; fill-opacity:1.0; 
stroke:#840000; stroke-width:39.3701; stroke-opacity:1; 
stroke-linecap:round; stroke-linejoin:round;">
</g>
<g style="fill:#840000; fill-opacity:1.0; 
stroke:#840000; stroke-width:0; stroke-opacity:1; 
stroke-linecap:round; stroke-linejoin:round;">
<circle cx="12520.5" cy="3682.53" r="393.5" /> 
</g>
<g style="fill:#840000; fill-opacity:1.0; 
stroke:#840000; stroke-width:39.3701; stroke-opacity:1; 
stroke-linecap:round; stroke-linejoin:round;">
</g>
<g style="fill:#840000; fill-opacity:1.0; 
stroke:#840000; stroke-width:0; stroke-opacity:1; 
stroke-linecap:round; stroke-linejoin:round;">
<circle cx="12520.5" cy="7682.53" r="393.5" /> 
</g>
<g style="fill:#840000; fill-opacity:1.0; 
stroke:#840000; stroke-width:39.3701; stroke-opacity:1; 
stroke-linecap:round; stroke-linejoin:round;">
</g>
<g style="fill:#840000; fill-opacity:1.0; 
stroke:#840000; stroke-width:0; stroke-opacity:1; 
stroke-linecap:round; stroke-linejoin:round;">
<circle cx="16520.5" cy="3682.53" r="393.5" /> 
</g>
<g style="fill:#840000; fill-opacity:1.0; 
stroke:#840000; stroke-width:39.3701; stroke-opacity:1; 
stroke-linecap:round; stroke-linejoin:round;">
</g>
<g style="fill:#840000; fill-opacity:1.0; 
stroke:#840000; stroke-width:0; stroke-opacity:1; 
stroke-linecap:round; stroke-linejoin:round;">
<circle cx="16520.5" cy="7682.53" r="393.5" /> 
</g>
<g style="fill:#840000; fill-opacity:1.0; 
stroke:#840000; stroke-width:39.3701; stroke-opacity:1; 
stroke-linecap:round; stroke-linejoin:round;">
</g> 
</svg>
