<?xml version="1.0" standalone="no"?>
 <!DOCTYPE svg PUBLIC "-//W3C//DTD SVG 1.1//EN" 
 "http://www.w3.org/Graphics/SVG/1.1/DTD/svg11.dtd"> 
<svg xmlns="http://www.w3.org/2000/svg" version="1.1" 
    width="4.7117cm" height="3.60934cm" viewBox="0 0 18550 14210 ">
<title>SVG Picture created as multivibrator-F.SilkS.svg date 2016/12/11 18:28:57 </title>
  <desc>Picture generated by PCBNEW </desc>
<g style="fill:#000000; fill-opacity:1;stroke:#000000; stroke-opacity:1;
stroke-linecap:round; stroke-linejoin:round; "
 transform="translate(0 0) scale(1 1)">
</g>
<g style="fill:#C2C200; fill-opacity:0.0; 
stroke:#C2C200; stroke-width:-0.000393701; stroke-opacity:1; 
stroke-linecap:round; stroke-linejoin:round;">
</g>
<g style="fill:#C2C200; fill-opacity:0.0; 
stroke:#C2C200; stroke-width:59.0551; stroke-opacity:1; 
stroke-linecap:round; stroke-linejoin:round;">
<path d="M29 14182
L18529 14182
" />
<path d="M18529 1682
L29 1682
" />
<path d="M29 14182
L29 1682
" />
<path d="M18529 1682
L18529 14182
" />
<path d="M9051 7299
L9032 7317
L8976 7336
L8938 7336
L8882 7317
L8845 7280
L8826 7242
L8807 7167
L8807 7111
L8826 7036
L8845 6999
L8882 6961
L8938 6942
L8976 6942
L9032 6961
L9051 6980
" />
<path d="M9295 6942
L9370 6942
L9407 6961
L9445 6999
L9463 7074
L9463 7205
L9445 7280
L9407 7317
L9370 7336
L9295 7336
L9257 7317
L9220 7280
L9201 7205
L9201 7074
L9220 6999
L9257 6961
L9295 6942
" />
<path d="M9632 7336
L9632 6942
L9857 7336
L9857 6942
" />
<path d="M10251 7336
L10026 7336
" />
<path d="M10138 7336
L10138 6942
L10101 6999
L10063 7036
L10026 7055
" />
<path d="M7138 9760
L7138 9366
L7232 9366
L7288 9385
L7326 9423
L7345 9460
L7363 9535
L7363 9591
L7345 9666
L7326 9704
L7288 9741
L7232 9760
L7138 9760
" />
<path d="M7738 9760
L7513 9760
" />
<path d="M7626 9760
L7626 9366
L7588 9423
L7551 9460
L7513 9479
" />
</g>
<g style="fill:#008484; fill-opacity:0.0; 
stroke:#008484; stroke-width:59.0551; stroke-opacity:1; 
stroke-linecap:round; stroke-linejoin:round;">
<path d="M8676 10610
L8676 10216
" />
<path d="M8901 10610
L8732 10385
" />
<path d="M8901 10216
L8676 10441
" />
</g>
<g style="fill:#C2C200; fill-opacity:0.0; 
stroke:#C2C200; stroke-width:59.0551; stroke-opacity:1; 
stroke-linecap:round; stroke-linejoin:round;">
<path d="M10338 12960
L10338 12566
L10432 12566
L10488 12585
L10526 12623
L10545 12660
L10563 12735
L10563 12791
L10545 12866
L10526 12904
L10488 12941
L10432 12960
L10338 12960
" />
<path d="M10713 12604
L10732 12585
L10770 12566
L10863 12566
L10901 12585
L10920 12604
L10938 12641
L10938 12679
L10920 12735
L10695 12960
L10938 12960
" />
</g>
<g style="fill:#008484; fill-opacity:0.0; 
stroke:#008484; stroke-width:59.0551; stroke-opacity:1; 
stroke-linecap:round; stroke-linejoin:round;">
<path d="M9176 12110
L9176 11716
" />
<path d="M9401 12110
L9232 11885
" />
<path d="M9401 11716
L9176 11941
" />
</g>
<g style="fill:#C2C200; fill-opacity:0.0; 
stroke:#C2C200; stroke-width:59.0551; stroke-opacity:1; 
stroke-linecap:round; stroke-linejoin:round;">
<path d="M6934 10759
L6915 10796
L6877 10834
L6821 10890
L6802 10928
L6802 10965
" />
<path d="M6896 10946
L6877 10984
L6840 11021
L6765 11040
L6634 11040
L6559 11021
L6521 10984
L6502 10946
L6502 10871
L6521 10834
L6559 10796
L6634 10778
L6765 10778
L6840 10796
L6877 10834
L6896 10871
L6896 10946
" />
<path d="M6896 10403
L6896 10628
" />
<path d="M6896 10515
L6502 10515
L6559 10553
L6596 10590
L6615 10628
" />
<path d="M17934 10759
L17915 10796
L17877 10834
L17821 10890
L17802 10928
L17802 10965
" />
<path d="M17896 10946
L17877 10984
L17840 11021
L17765 11040
L17634 11040
L17559 11021
L17521 10984
L17502 10946
L17502 10871
L17521 10834
L17559 10796
L17634 10778
L17765 10778
L17840 10796
L17877 10834
L17896 10871
L17896 10946
" />
<path d="M17540 10628
L17521 10609
L17502 10571
L17502 10478
L17521 10440
L17540 10421
L17577 10403
L17615 10403
L17671 10421
L17896 10646
L17896 10403
" />
<path d="M3956 5327
L3937 5345
L3881 5364
L3843 5364
L3787 5345
L3749 5308
L3731 5270
L3712 5195
L3712 5139
L3731 5064
L3749 5027
L3787 4989
L3843 4970
L3881 4970
L3937 4989
L3956 5008
" />
<path d="M4330 5364
L4106 5364
" />
<path d="M4218 5364
L4218 4970
L4181 5027
L4143 5064
L4106 5083
" />
<path d="M14471 8319
L14453 8337
L14396 8356
L14359 8356
L14303 8337
L14265 8300
L14246 8262
L14228 8187
L14228 8131
L14246 8056
L14265 8019
L14303 7981
L14359 7962
L14396 7962
L14453 7981
L14471 8000
" />
<path d="M14621 8000
L14640 7981
L14678 7962
L14771 7962
L14809 7981
L14827 8000
L14846 8037
L14846 8075
L14827 8131
L14603 8356
L14846 8356
" />
<path d="M18085 5846
L17898 5977
" />
<path d="M18085 6071
L17691 6071
L17691 5921
L17710 5883
L17729 5864
L17766 5846
L17823 5846
L17860 5864
L17879 5883
L17898 5921
L17898 6071
" />
<path d="M17823 5508
L18085 5508
" />
<path d="M17673 5602
L17954 5696
L17954 5452
" />
<path d="M14085 5846
L13898 5977
" />
<path d="M14085 6071
L13691 6071
L13691 5921
L13710 5883
L13729 5864
L13766 5846
L13823 5846
L13860 5864
L13879 5883
L13898 5921
L13898 6071
" />
<path d="M13691 5714
L13691 5471
L13841 5602
L13841 5546
L13860 5508
L13879 5489
L13916 5471
L14010 5471
L14048 5489
L14066 5508
L14085 5546
L14085 5658
L14066 5696
L14048 5714
" />
<path d="M7585 5846
L7398 5977
" />
<path d="M7585 6071
L7191 6071
L7191 5921
L7210 5883
L7229 5864
L7266 5846
L7323 5846
L7360 5864
L7379 5883
L7398 5921
L7398 6071
" />
<path d="M7229 5696
L7210 5677
L7191 5639
L7191 5546
L7210 5508
L7229 5489
L7266 5471
L7304 5471
L7360 5489
L7585 5714
L7585 5471
" />
<path d="M3585 5846
L3398 5977
" />
<path d="M3585 6071
L3191 6071
L3191 5921
L3210 5883
L3229 5864
L3266 5846
L3323 5846
L3360 5864
L3379 5883
L3398 5921
L3398 6071
" />
<path d="M3585 5471
L3585 5696
" />
<path d="M3585 5583
L3191 5583
L3248 5621
L3285 5658
L3304 5696
" />
</g>
<g style="fill:#008484; fill-opacity:0.0; 
stroke:#008484; stroke-width:59.0551; stroke-opacity:1; 
stroke-linecap:round; stroke-linejoin:round;">
<path d="M11301 1607
L7757 1607
" />
<path d="M11301 229
L7757 229
" />
<path d="M7757 229
L7757 5938
" />
<path d="M7757 5938
L11301 5938
" />
<path d="M11301 5938
L11301 229
" />
<path d="M8507.83 10582.2 A1147.83 1147.83 0.0 1 0 8513.78 11773.1 " />
<path d="M8513 10591
L8513 11773
" />
<circle cx="7529.53" cy="11182.5" r="991.313" /> 
<path d="M9551.23 11782.9 A1147.83 1147.83 0.0 1 0 9545.28 10592 " />
<path d="M9545 11773
L9545 10591
" />
<circle cx="10529.5" cy="11182.5" r="991.313" /> 
<circle cx="3529.53" cy="8792.76" r="157.48" /> 
<circle cx="3529.53" cy="10682.5" r="1574.8" /> 
<circle cx="3529.53" cy="10682.5" r="2204.72" /> 
<circle cx="14529.5" cy="8792.76" r="157.48" /> 
<circle cx="14529.5" cy="10682.5" r="1574.8" /> 
<circle cx="14529.5" cy="10682.5" r="2204.72" /> 
<path d="M4051 5698
L4051 7666
" />
<path d="M4106 5701
L4106 7663
" />
<path d="M4161 5708
L4161 6645
" />
<path d="M4161 6719
L4161 7656
" />
<path d="M4216 5717
L4216 6489
" />
<path d="M4216 6875
L4216 7647
" />
<path d="M4271 5730
L4271 6423
" />
<path d="M4271 6941
L4271 7634
" />
<path d="M4326 5746
L4326 6381
" />
<path d="M4326 6983
L4326 7618
" />
<path d="M4381 5766
L4381 6353
" />
<path d="M4381 7011
L4381 7598
" />
<path d="M4437 5790
L4437 6336
" />
<path d="M4437 7028
L4437 7574
" />
<path d="M4492 5817
L4492 6328
" />
<path d="M4492 7036
L4492 7547
" />
<path d="M4547 5850
L4547 6329
" />
<path d="M4547 7035
L4547 7514
" />
<path d="M4602 5887
L4602 6339
" />
<path d="M4602 7025
L4602 7477
" />
<path d="M4657 5931
L4657 6358
" />
<path d="M4657 7006
L4657 7433
" />
<path d="M4712 5981
L4712 6389
" />
<path d="M4712 6975
L4712 7383
" />
<path d="M4767 6040
L4767 6435
" />
<path d="M4767 6929
L4767 7324
" />
<path d="M4822 6110
L4822 6509
" />
<path d="M4822 6855
L4822 7254
" />
<path d="M4877 6197
L4877 7167
" />
<path d="M4933 6310
L4933 7054
" />
<path d="M4988 6496
L4988 6868
" />
<circle cx="4513.78" cy="6682.53" r="354.331" /> 
<circle cx="4021.65" cy="6682.53" r="999.016" /> 
<path d="M14507 7666
L14507 5698
" />
<path d="M14452 7663
L14452 5701
" />
<path d="M14397 7656
L14397 6719
" />
<path d="M14397 6645
L14397 5708
" />
<path d="M14342 7647
L14342 6875
" />
<path d="M14342 6489
L14342 5717
" />
<path d="M14287 7634
L14287 6941
" />
<path d="M14287 6423
L14287 5730
" />
<path d="M14232 7618
L14232 6983
" />
<path d="M14232 6381
L14232 5746
" />
<path d="M14177 7598
L14177 7011
" />
<path d="M14177 6353
L14177 5766
" />
<path d="M14122 7574
L14122 7028
" />
<path d="M14122 6336
L14122 5790
" />
<path d="M14066 7547
L14066 7036
" />
<path d="M14066 6328
L14066 5817
" />
<path d="M14011 7514
L14011 7035
" />
<path d="M14011 6329
L14011 5850
" />
<path d="M13956 7477
L13956 7025
" />
<path d="M13956 6339
L13956 5887
" />
<path d="M13901 7433
L13901 7006
" />
<path d="M13901 6358
L13901 5931
" />
<path d="M13846 7383
L13846 6975
" />
<path d="M13846 6389
L13846 5981
" />
<path d="M13791 7324
L13791 6929
" />
<path d="M13791 6435
L13791 6040
" />
<path d="M13736 7254
L13736 6855
" />
<path d="M13736 6509
L13736 6110
" />
<path d="M13681 7167
L13681 6197
" />
<path d="M13625 7054
L13625 6310
" />
<path d="M13570 6868
L13570 6496
" />
<circle cx="14045.3" cy="6682.53" r="354.331" /> 
<circle cx="14537.4" cy="6682.53" r="999.016" /> 
<path d="M17029 4682
L17029 6682
" />
<path d="M17029 6682
L16029 6682
" />
<path d="M16029 6682
L16029 4682
" />
<path d="M16029 4682
L17029 4682
" />
<path d="M16529 4682
L16529 4182
" />
<path d="M16529 6682
L16529 7182
" />
<path d="M13029 4682
L13029 6682
" />
<path d="M13029 6682
L12029 6682
" />
<path d="M12029 6682
L12029 4682
" />
<path d="M12029 4682
L13029 4682
" />
<path d="M12529 4682
L12529 4182
" />
<path d="M12529 6682
L12529 7182
" />
<path d="M6529 4682
L6529 6682
" />
<path d="M6529 6682
L5529 6682
" />
<path d="M5529 6682
L5529 4682
" />
<path d="M5529 4682
L6529 4682
" />
<path d="M6029 4682
L6029 4182
" />
<path d="M6029 6682
L6029 7182
" />
<path d="M2529 4682
L2529 6682
" />
<path d="M2529 6682
L1529 6682
" />
<path d="M1529 6682
L1529 4682
" />
<path d="M1529 4682
L2529 4682
" />
<path d="M2029 4682
L2029 4182
" />
<path d="M2029 6682
L2029 7182
" />
</g>
<g style="fill:#840000; fill-opacity:0.0; 
stroke:#840000; stroke-width:59.0551; stroke-opacity:1; 
stroke-linecap:round; stroke-linejoin:round;">
</g>
<g style="fill:#840000; fill-opacity:0.0; 
stroke:#840000; stroke-width:0; stroke-opacity:1; 
stroke-linecap:round; stroke-linejoin:round;">
</g>
<g style="fill:#840000; fill-opacity:1.0; 
stroke:#840000; stroke-width:0; stroke-opacity:1; 
stroke-linecap:round; stroke-linejoin:round;">
<polyline style="fill-rule:evenodd;"
points="8840,4934
10218,4934
10218,6312
8840,6312
8840,4934
" /> 
<polyline style="fill-rule:evenodd;"
points="8840,2572
10218,2572
10218,3950
8840,3950
8840,2572
" /> 
<polyline style="fill-rule:evenodd;"
points="6990,3753
8368,3753
8368,5131
6990,5131
6990,3753
" /> 
<polyline style="fill-rule:evenodd;"
points="7655,10788
8403,10788
8403,11576
7655,11576
7655,10788
" /> 
<circle cx="7029.53" cy="11182.5" r="374.016" /> 
</g>
<g style="fill:#840000; fill-opacity:1.0; 
stroke:#840000; stroke-width:39.3701; stroke-opacity:1; 
stroke-linecap:round; stroke-linejoin:round;">
</g>
<g style="fill:#840000; fill-opacity:1.0; 
stroke:#840000; stroke-width:0; stroke-opacity:1; 
stroke-linecap:round; stroke-linejoin:round;">
<polyline style="fill-rule:evenodd;"
points="10403,11576
9655,11576
9655,10788
10403,10788
10403,11576
" /> 
<circle cx="11029.5" cy="11182.5" r="374.016" /> 
</g>
<g style="fill:#840000; fill-opacity:1.0; 
stroke:#840000; stroke-width:39.3701; stroke-opacity:1; 
stroke-linecap:round; stroke-linejoin:round;">
</g>
<g style="fill:#840000; fill-opacity:1.0; 
stroke:#840000; stroke-width:551.181; stroke-opacity:1; 
stroke-linecap:round; stroke-linejoin:round;">
</g>
<g style="fill:#840000; fill-opacity:0.0; 
stroke:#840000; stroke-width:551.181; stroke-opacity:1; 
stroke-linecap:round; stroke-linejoin:round;">
<path d="M3746 10682
L3312 10682
" />
<path d="M3746 9895
L3312 9895
" />
<path d="M3746 11469
L3312 11469
" />
<path d="M14746 10682
L14312 10682
" />
<path d="M14746 9895
L14312 9895
" />
<path d="M14746 11469
L14312 11469
" />
</g>
<g style="fill:#840000; fill-opacity:0.0; 
stroke:#840000; stroke-width:0; stroke-opacity:1; 
stroke-linecap:round; stroke-linejoin:round;">
</g>
<g style="fill:#840000; fill-opacity:1.0; 
stroke:#840000; stroke-width:0; stroke-opacity:1; 
stroke-linecap:round; stroke-linejoin:round;">
<polyline style="fill-rule:evenodd;"
points="3273,6938
3273,6426
3785,6426
3785,6938
3273,6938
" /> 
<circle cx="4513.78" cy="6682.53" r="255.906" /> 
</g>
<g style="fill:#840000; fill-opacity:1.0; 
stroke:#840000; stroke-width:39.3701; stroke-opacity:1; 
stroke-linecap:round; stroke-linejoin:round;">
</g>
<g style="fill:#840000; fill-opacity:1.0; 
stroke:#840000; stroke-width:0; stroke-opacity:1; 
stroke-linecap:round; stroke-linejoin:round;">
<polyline style="fill-rule:evenodd;"
points="15285,6426
15285,6938
14773,6938
14773,6426
15285,6426
" /> 
<circle cx="14045.3" cy="6682.53" r="255.906" /> 
</g>
<g style="fill:#840000; fill-opacity:1.0; 
stroke:#840000; stroke-width:39.3701; stroke-opacity:1; 
stroke-linecap:round; stroke-linejoin:round;">
</g>
<g style="fill:#840000; fill-opacity:1.0; 
stroke:#840000; stroke-width:0; stroke-opacity:1; 
stroke-linecap:round; stroke-linejoin:round;">
<circle cx="16529.5" cy="3682.53" r="393.5" /> 
</g>
<g style="fill:#840000; fill-opacity:1.0; 
stroke:#840000; stroke-width:39.3701; stroke-opacity:1; 
stroke-linecap:round; stroke-linejoin:round;">
</g>
<g style="fill:#840000; fill-opacity:1.0; 
stroke:#840000; stroke-width:0; stroke-opacity:1; 
stroke-linecap:round; stroke-linejoin:round;">
<circle cx="16529.5" cy="7682.53" r="393.5" /> 
</g>
<g style="fill:#840000; fill-opacity:1.0; 
stroke:#840000; stroke-width:39.3701; stroke-opacity:1; 
stroke-linecap:round; stroke-linejoin:round;">
</g>
<g style="fill:#840000; fill-opacity:1.0; 
stroke:#840000; stroke-width:0; stroke-opacity:1; 
stroke-linecap:round; stroke-linejoin:round;">
<circle cx="12529.5" cy="3682.53" r="393.5" /> 
</g>
<g style="fill:#840000; fill-opacity:1.0; 
stroke:#840000; stroke-width:39.3701; stroke-opacity:1; 
stroke-linecap:round; stroke-linejoin:round;">
</g>
<g style="fill:#840000; fill-opacity:1.0; 
stroke:#840000; stroke-width:0; stroke-opacity:1; 
stroke-linecap:round; stroke-linejoin:round;">
<circle cx="12529.5" cy="7682.53" r="393.5" /> 
</g>
<g style="fill:#840000; fill-opacity:1.0; 
stroke:#840000; stroke-width:39.3701; stroke-opacity:1; 
stroke-linecap:round; stroke-linejoin:round;">
</g>
<g style="fill:#840000; fill-opacity:1.0; 
stroke:#840000; stroke-width:0; stroke-opacity:1; 
stroke-linecap:round; stroke-linejoin:round;">
<circle cx="6029.53" cy="3682.53" r="393.5" /> 
</g>
<g style="fill:#840000; fill-opacity:1.0; 
stroke:#840000; stroke-width:39.3701; stroke-opacity:1; 
stroke-linecap:round; stroke-linejoin:round;">
</g>
<g style="fill:#840000; fill-opacity:1.0; 
stroke:#840000; stroke-width:0; stroke-opacity:1; 
stroke-linecap:round; stroke-linejoin:round;">
<circle cx="6029.53" cy="7682.53" r="393.5" /> 
</g>
<g style="fill:#840000; fill-opacity:1.0; 
stroke:#840000; stroke-width:39.3701; stroke-opacity:1; 
stroke-linecap:round; stroke-linejoin:round;">
</g>
<g style="fill:#840000; fill-opacity:1.0; 
stroke:#840000; stroke-width:0; stroke-opacity:1; 
stroke-linecap:round; stroke-linejoin:round;">
<circle cx="2029.53" cy="3682.53" r="393.5" /> 
</g>
<g style="fill:#840000; fill-opacity:1.0; 
stroke:#840000; stroke-width:39.3701; stroke-opacity:1; 
stroke-linecap:round; stroke-linejoin:round;">
</g>
<g style="fill:#840000; fill-opacity:1.0; 
stroke:#840000; stroke-width:0; stroke-opacity:1; 
stroke-linecap:round; stroke-linejoin:round;">
<circle cx="2029.53" cy="7682.53" r="393.5" /> 
</g>
<g style="fill:#840000; fill-opacity:1.0; 
stroke:#840000; stroke-width:39.3701; stroke-opacity:1; 
stroke-linecap:round; stroke-linejoin:round;">
</g> 
</svg>
