<?xml version="1.0" standalone="no"?>
<!DOCTYPE svg PUBLIC "-//W3C//DTD SVG 1.1//EN"
"http://www.w3.org/Graphics/SVG/1.1/DTD/svg11.dtd">
<svg width="3956.03" height="2756.03" viewBox="0 0 3956.03 2756.03" version="1.1"
xmlns="http://www.w3.org/2000/svg"
xmlns:xlink="http://www.w3.org/1999/xlink">
<circle cx="3127" cy="2227" r="31" style=""/>
<circle cx="3127" cy="2027" r="31" style=""/>
<circle cx="3127" cy="1827" r="31" style=""/>
<circle cx="3127" cy="1328" r="31" style=""/>
<circle cx="2931" cy="1328" r="31" style=""/>
<circle cx="1024" cy="1328" r="31" style=""/>
<circle cx="828" cy="1328" r="31" style=""/>
<circle cx="828" cy="1827" r="31" style=""/>
<circle cx="828" cy="2027" r="31" style=""/>
<circle cx="828" cy="2227" r="31" style=""/>
<circle cx="3427" cy="1328" r="38" style=""/>
<circle cx="3427" cy="528" r="38" style=""/>
<circle cx="2627" cy="528" r="38" style=""/>
<circle cx="2106" cy="443" r="38" style=""/>
<circle cx="2106" cy="916" r="38" style=""/>
<circle cx="1658" cy="601" r="38" style=""/>
<circle cx="1328" cy="528" r="38" style=""/>
<circle cx="1328" cy="1328" r="38" style=""/>
<circle cx="1528" cy="2027" r="38" style=""/>
<circle cx="1728" cy="2027" r="38" style=""/>
<circle cx="2127" cy="2027" r="38" style=""/>
<circle cx="2327" cy="2027" r="38" style=""/>
<circle cx="2627" cy="1328" r="38" style=""/>
<circle cx="528" cy="1328" r="38" style=""/>
<circle cx="528" cy="528" r="38" style=""/>
</svg>
