<?xml version="1.0" standalone="no"?>
<!DOCTYPE svg PUBLIC "-//W3C//DTD SVG 1.1//EN"
"http://www.w3.org/Graphics/SVG/1.1/DTD/svg11.dtd">
<svg width="3362" height="2255" viewBox="0 0 3362 2255" version="1.1"
xmlns="http://www.w3.org/2000/svg"
xmlns:xlink="http://www.w3.org/1999/xlink">
<g fill-rule="evenodd"><path d="M 1231,2255 L 331,2255 L 325,2254 L 319,2252 L 314,2250 L 310,2246 L 306,2242 L 6,1842 L 3,1838 L 1,1833 L 0,1828 L 0,1824 L 0,924 L 0,917 L 2,912 L 5,906 L 9,902 L 209,702 L 213,698 L 219,695 L 224,693 L 231,693 L 917,693 L 1138,454 L 1143,450 L 1148,447 L 1154,445 L 1161,445 L 1223,445 L 1223,338 L 1454,338 L 1575,217 L 1579,214 L 1585,211 L 1591,209 L 1593,209 L 1593,102 L 1868,102 L 1868,377 L 1593,377 L 1593,287 L 1498,382 L 1498,613 L 1223,613 L 1223,507 L 1174,507 L 953,745 L 948,749 L 943,752 L 937,754 L 931,755 L 243,755 L 62,936 L 62,1813 L 346,2193 L 1215,2193 L 1400,1954 L 1400,1902 L 1356,1902 L 1356,1745 L 1505,1745 L 1505,1793 L 1756,1793 L 1756,1745 L 1905,1745 L 1905,1902 L 1756,1902 L 1756,1855 L 1505,1855 L 1505,1902 L 1462,1902 L 1462,1964 L 1461,1969 L 1460,1974 L 1458,1979 L 1455,1983 L 1255,2242 L 1251,2247 L 1247,2250 L 1242,2252 L 1236,2254 L 1231,2255 z " style="fill-opacity:1.000000;fill:rgb(103,198,105);stroke:rgb(0,0,0);stroke-width:2"/></g>
<g fill-rule="evenodd"><path d="M 3361,924 L 3361,1524 L 3361,1530 L 3359,1535 L 3356,1541 L 3352,1545 L 3052,1845 L 3048,1849 L 3042,1852 L 3037,1854 L 3030,1855 L 2881,1855 L 2879,1859 L 2871,1868 L 2860,1875 L 2849,1880 L 2837,1883 L 2824,1883 L 2812,1880 L 2801,1875 L 2790,1868 L 2782,1859 L 2776,1848 L 2772,1836 L 2771,1824 L 2772,1811 L 2776,1799 L 2782,1788 L 2790,1779 L 2801,1772 L 2812,1767 L 2824,1764 L 2837,1764 L 2849,1767 L 2860,1772 L 2871,1779 L 2879,1788 L 2881,1793 L 3018,1793 L 3299,1511 L 3299,936 L 3118,755 L 2143,755 L 1744,1146 L 1739,1149 L 1734,1152 L 1728,1154 L 1722,1155 L 1103,1155 L 1102,1156 L 1094,1170 L 1083,1182 L 1070,1192 L 1055,1198 L 1039,1202 L 1022,1202 L 1006,1198 L 991,1192 L 978,1182 L 967,1170 L 959,1156 L 958,1155 L 768,1155 L 762,1162 L 753,1168 L 743,1172 L 733,1174 L 722,1174 L 712,1172 L 702,1168 L 693,1162 L 686,1154 L 681,1144 L 677,1134 L 676,1124 L 677,1113 L 681,1103 L 686,1093 L 693,1085 L 702,1079 L 712,1075 L 722,1073 L 733,1073 L 743,1075 L 753,1079 L 762,1085 L 768,1093 L 958,1093 L 959,1091 L 967,1077 L 978,1065 L 991,1055 L 1006,1049 L 1022,1045 L 1039,1045 L 1055,1049 L 1070,1055 L 1083,1065 L 1094,1077 L 1102,1091 L 1103,1093 L 1709,1093 L 2109,701 L 2113,698 L 2119,695 L 2125,693 L 2130,693 L 3130,693 L 3137,693 L 3142,695 L 3148,698 L 3152,702 L 3352,902 L 3356,906 L 3359,912 L 3361,917 L 3361,924 z " style="fill-opacity:1.000000;fill:rgb(115,81,255);stroke:rgb(0,0,0);stroke-width:2"/></g>
<g fill-rule="evenodd"><path d="M 562,1175 L 562,1572 L 571,1579 L 579,1588 L 585,1599 L 589,1611 L 590,1624 L 589,1636 L 585,1648 L 579,1659 L 571,1668 L 560,1675 L 549,1680 L 537,1683 L 524,1683 L 512,1680 L 501,1675 L 490,1668 L 482,1659 L 476,1648 L 472,1636 L 471,1624 L 472,1611 L 476,1599 L 482,1588 L 490,1579 L 500,1572 L 500,1175 L 479,1175 L 479,1155 L 303,1155 L 302,1156 L 294,1170 L 283,1182 L 270,1192 L 255,1198 L 239,1202 L 222,1202 L 206,1198 L 191,1192 L 178,1182 L 167,1170 L 159,1156 L 154,1140 L 152,1124 L 154,1107 L 159,1091 L 167,1077 L 178,1065 L 191,1055 L 206,1049 L 222,1045 L 239,1045 L 255,1049 L 270,1055 L 283,1065 L 294,1077 L 302,1091 L 303,1093 L 479,1093 L 479,1072 L 582,1072 L 582,1175 L 562,1175 z " style="fill-opacity:1.000000;fill:rgb(74,236,41);stroke:rgb(0,0,0);stroke-width:2"/></g>
<g fill-rule="evenodd"><path d="M 590,2055 L 590,2083 L 471,2083 L 471,1964 L 590,1964 L 590,1993 L 1018,1993 L 1161,1849 L 1157,1839 L 1156,1824 L 1157,1808 L 1162,1793 L 1170,1780 L 1180,1768 L 1193,1759 L 1207,1752 L 1223,1749 L 1238,1749 L 1254,1752 L 1268,1759 L 1281,1768 L 1291,1780 L 1299,1793 L 1304,1808 L 1305,1824 L 1304,1839 L 1299,1854 L 1291,1867 L 1281,1879 L 1268,1888 L 1254,1895 L 1238,1898 L 1223,1898 L 1207,1895 L 1204,1893 L 1052,2045 L 1048,2049 L 1042,2052 L 1037,2054 L 1031,2055 L 590,2055 z " style="fill-opacity:1.000000;fill:rgb(205,186,171);stroke:rgb(0,0,0);stroke-width:2"/></g>
<g fill-rule="evenodd"><path d="M 581,1855 L 579,1859 L 571,1868 L 560,1875 L 549,1880 L 537,1883 L 524,1883 L 512,1880 L 501,1875 L 490,1868 L 482,1859 L 476,1848 L 472,1836 L 471,1824 L 472,1811 L 476,1799 L 482,1788 L 490,1779 L 501,1772 L 512,1767 L 524,1764 L 537,1764 L 549,1767 L 560,1772 L 571,1779 L 579,1788 L 581,1793 L 718,1793 L 1109,1402 L 1113,1398 L 1119,1395 L 1124,1393 L 1131,1393 L 2018,1393 L 2258,1153 L 2254,1140 L 2252,1124 L 2254,1107 L 2259,1091 L 2267,1077 L 2278,1065 L 2291,1055 L 2306,1049 L 2322,1045 L 2339,1045 L 2355,1049 L 2370,1055 L 2383,1065 L 2394,1077 L 2402,1091 L 2403,1093 L 2593,1093 L 2599,1085 L 2608,1079 L 2618,1075 L 2628,1073 L 2639,1073 L 2649,1075 L 2659,1079 L 2668,1085 L 2675,1093 L 2680,1103 L 2684,1113 L 2685,1124 L 2684,1134 L 2680,1144 L 2675,1154 L 2668,1162 L 2659,1168 L 2649,1172 L 2639,1174 L 2628,1174 L 2618,1172 L 2608,1168 L 2599,1162 L 2593,1155 L 2403,1155 L 2402,1156 L 2394,1170 L 2383,1182 L 2370,1192 L 2355,1198 L 2339,1202 L 2322,1202 L 2306,1198 L 2302,1196 L 2052,1445 L 2048,1449 L 2042,1452 L 2037,1454 L 2030,1455 L 1143,1455 L 752,1845 L 748,1849 L 742,1852 L 737,1854 L 731,1855 L 581,1855 z " style="fill-opacity:1.000000;fill:rgb(242,251,227);stroke:rgb(0,0,0);stroke-width:2"/></g>
<g fill-rule="evenodd"><path d="M 2799,1175 L 2779,1175 L 2779,1072 L 2882,1072 L 2882,1093 L 3058,1093 L 3059,1091 L 3067,1077 L 3078,1065 L 3091,1055 L 3106,1049 L 3122,1045 L 3139,1045 L 3155,1049 L 3170,1055 L 3183,1065 L 3194,1077 L 3202,1091 L 3207,1107 L 3209,1124 L 3207,1140 L 3202,1156 L 3194,1170 L 3183,1182 L 3170,1192 L 3155,1198 L 3139,1202 L 3122,1202 L 3106,1198 L 3091,1192 L 3078,1182 L 3067,1170 L 3059,1156 L 3058,1155 L 2882,1155 L 2882,1175 L 2861,1175 L 2861,1572 L 2871,1579 L 2879,1588 L 2885,1599 L 2889,1611 L 2890,1624 L 2889,1636 L 2885,1648 L 2879,1659 L 2871,1668 L 2860,1675 L 2849,1680 L 2837,1683 L 2824,1683 L 2812,1680 L 2801,1675 L 2790,1668 L 2782,1659 L 2776,1648 L 2772,1636 L 2771,1624 L 2772,1611 L 2776,1599 L 2782,1588 L 2790,1579 L 2799,1572 L 2799,1175 z " style="fill-opacity:1.000000;fill:rgb(70,124,194);stroke:rgb(0,0,0);stroke-width:2"/></g>
<g fill-rule="evenodd"><path d="M 2771,1993 L 2771,1964 L 2890,1964 L 2890,2083 L 2771,2083 L 2771,2055 L 2230,2055 L 2224,2054 L 2219,2052 L 2213,2049 L 2209,2045 L 2057,1893 L 2054,1895 L 2038,1898 L 2023,1898 L 2007,1895 L 1993,1888 L 1980,1879 L 1970,1867 L 1962,1854 L 1957,1839 L 1956,1824 L 1957,1808 L 1962,1793 L 1970,1780 L 1980,1768 L 1993,1759 L 2007,1752 L 2023,1749 L 2038,1749 L 2054,1752 L 2068,1759 L 2081,1768 L 2091,1780 L 2099,1793 L 2104,1808 L 2105,1824 L 2104,1839 L 2100,1849 L 2243,1993 L 2771,1993 z " style="fill-opacity:1.000000;fill:rgb(84,248,27);stroke:rgb(0,0,0);stroke-width:2"/></g>
<g fill-rule="evenodd"><path d="M 1324,0 L 2037,0 L 2044,0 L 2049,2 L 2055,5 L 2059,9 L 2302,251 L 2306,249 L 2322,245 L 2339,245 L 2355,249 L 2370,255 L 2383,265 L 2394,277 L 2403,292 L 3058,292 L 3067,277 L 3078,265 L 3091,255 L 3106,249 L 3122,245 L 3139,245 L 3155,249 L 3170,255 L 3183,265 L 3194,277 L 3202,291 L 3207,307 L 3209,324 L 3207,340 L 3202,356 L 3194,370 L 3183,382 L 3170,392 L 3155,398 L 3139,402 L 3122,402 L 3106,398 L 3091,392 L 3078,382 L 3067,370 L 3058,355 L 2403,355 L 2394,370 L 2383,382 L 2370,392 L 2355,398 L 2339,402 L 2322,402 L 2306,398 L 2291,392 L 2280,384 L 1868,590 L 1868,850 L 1593,850 L 1593,574 L 1759,574 L 2252,327 L 2252,324 L 2254,307 L 2258,294 L 2025,62 L 1336,62 L 1103,294 L 1107,307 L 1109,324 L 1107,340 L 1102,356 L 1094,370 L 1083,382 L 1070,392 L 1055,398 L 1039,402 L 1022,402 L 1006,398 L 991,392 L 978,382 L 967,370 L 958,355 L 303,355 L 294,370 L 283,382 L 270,392 L 255,398 L 239,402 L 222,402 L 206,398 L 191,392 L 178,382 L 167,370 L 159,356 L 154,340 L 152,324 L 154,307 L 159,291 L 167,277 L 178,265 L 191,255 L 206,249 L 222,245 L 239,245 L 255,249 L 270,255 L 283,265 L 294,277 L 303,292 L 958,292 L 967,277 L 978,265 L 991,255 L 1006,249 L 1022,245 L 1039,245 L 1055,249 L 1059,251 L 1302,9 L 1306,5 L 1312,2 L 1317,0 L 1324,0 z " style="fill-opacity:1.000000;fill:rgb(232,231,141);stroke:rgb(0,0,0);stroke-width:2"/></g>
</svg>
