<?xml version="1.0" standalone="no"?>
<!DOCTYPE svg PUBLIC "-//W3C//DTD SVG 1.1//EN"
"http://www.w3.org/Graphics/SVG/1.1/DTD/svg11.dtd">
<svg width="3700" height="2500" viewBox="0 0 3700 2500" version="1.1"
xmlns="http://www.w3.org/2000/svg"
xmlns:xlink="http://www.w3.org/1999/xlink">
<g fill-rule="evenodd"><path d="M 1127,1169 L 1128,1167 L 1136,1153 L 1147,1141 L 1160,1131 L 1175,1125 L 1191,1121 L 1208,1121 L 1224,1125 L 1239,1131 L 1252,1141 L 1263,1153 L 1271,1167 L 1272,1169 L 1878,1169 L 2191,855 L 2196,852 L 2201,849 L 2207,847 L 2213,846 L 3199,846 L 3205,847 L 3211,849 L 3216,852 L 3221,855 L 3471,1106 L 3475,1110 L 3478,1116 L 3480,1122 L 3480,1128 L 3480,1271 L 3480,1277 L 3478,1283 L 3475,1289 L 3471,1293 L 3100,1664 L 3096,1668 L 3090,1671 L 3085,1672 L 3079,1673 L 2988,1673 L 2986,1676 L 2979,1684 L 2970,1690 L 2959,1695 L 2948,1697 L 2856,1697 L 2845,1696 L 2834,1693 L 2825,1687 L 2816,1680 L 2809,1671 L 2805,1661 L 2802,1650 L 2801,1639 L 2803,1628 L 2807,1618 L 2813,1608 L 2820,1600 L 2829,1594 L 2840,1589 L 2851,1587 L 2943,1587 L 2954,1588 L 2965,1591 L 2974,1597 L 2983,1604 L 2988,1611 L 3066,1611 L 3418,1259 L 3418,1140 L 3186,908 L 2226,908 L 1913,1221 L 1908,1225 L 1903,1228 L 1897,1230 L 1891,1231 L 1272,1231 L 1271,1232 L 1263,1246 L 1252,1258 L 1239,1268 L 1224,1274 L 1208,1278 L 1191,1278 L 1175,1274 L 1160,1268 L 1147,1258 L 1136,1246 L 1128,1232 L 1127,1231 L 1096,1231 L 1090,1230 L 1084,1228 L 1079,1225 L 1074,1221 L 903,1050 L 902,1050 L 891,1050 L 881,1048 L 871,1044 L 862,1038 L 855,1030 L 850,1020 L 846,1010 L 845,1000 L 846,989 L 850,979 L 855,969 L 862,961 L 871,955 L 881,951 L 891,949 L 902,949 L 912,951 L 922,955 L 931,961 L 938,969 L 943,979 L 946,989 L 948,1000 L 947,1006 L 1109,1169 L 1127,1169 z " style="fill-opacity:1.000000;fill:rgb(103,198,105);stroke:rgb(0,0,0);stroke-width:2"/></g>
<g fill-rule="evenodd"><path d="M 1674,1869 L 1925,1869 L 1925,1821 L 2074,1821 L 2074,1978 L 1925,1978 L 1925,1931 L 1674,1931 L 1674,1978 L 1631,1978 L 1631,2040 L 1630,2046 L 1628,2052 L 1625,2057 L 1621,2062 L 1565,2119 L 1560,2123 L 1555,2126 L 1549,2128 L 1543,2128 L 598,2128 L 592,2128 L 586,2126 L 581,2123 L 576,2119 L 214,1757 L 210,1752 L 207,1747 L 205,1741 L 205,1735 L 205,921 L 205,915 L 207,909 L 210,904 L 214,899 L 299,814 L 304,810 L 309,807 L 315,805 L 321,805 L 1033,805 L 1308,530 L 1312,526 L 1318,523 L 1324,521 L 1330,521 L 1392,521 L 1392,414 L 1623,414 L 1744,293 L 1748,290 L 1754,287 L 1760,285 L 1762,285 L 1762,178 L 2037,178 L 2037,453 L 1762,453 L 1762,363 L 1667,458 L 1667,689 L 1392,689 L 1392,583 L 1343,583 L 1067,858 L 1063,862 L 1057,864 L 1051,866 L 1045,867 L 334,867 L 267,934 L 267,1722 L 611,2066 L 1530,2066 L 1569,2027 L 1569,1978 L 1525,1978 L 1525,1821 L 1674,1821 L 1674,1869 z " style="fill-opacity:1.000000;fill:rgb(115,81,255);stroke:rgb(0,0,0);stroke-width:2"/></g>
<g fill-rule="evenodd"><path d="M 428,1127 L 578,978 L 582,974 L 588,971 L 593,969 L 600,969 L 648,969 L 648,948 L 751,948 L 751,1051 L 648,1051 L 648,1031 L 612,1031 L 472,1170 L 476,1183 L 478,1200 L 476,1216 L 471,1232 L 463,1246 L 452,1258 L 439,1268 L 431,1271 L 431,1647 L 552,1769 L 611,1769 L 613,1766 L 620,1758 L 629,1751 L 640,1747 L 651,1745 L 743,1744 L 754,1746 L 765,1749 L 774,1754 L 783,1762 L 790,1770 L 794,1780 L 797,1791 L 798,1802 L 796,1813 L 792,1824 L 786,1833 L 779,1841 L 770,1848 L 759,1852 L 748,1854 L 656,1855 L 645,1853 L 634,1850 L 625,1845 L 616,1837 L 611,1831 L 539,1831 L 533,1830 L 527,1828 L 522,1825 L 517,1821 L 378,1682 L 374,1677 L 371,1672 L 369,1666 L 369,1660 L 369,1271 L 360,1268 L 347,1258 L 336,1246 L 328,1232 L 323,1216 L 321,1200 L 323,1183 L 328,1167 L 336,1153 L 347,1141 L 360,1131 L 375,1125 L 391,1121 L 408,1121 L 424,1125 L 428,1127 z " style="fill-opacity:1.000000;fill:rgb(74,236,41);stroke:rgb(0,0,0);stroke-width:2"/></g>
<g fill-rule="evenodd"><path d="M 3271,1127 L 3275,1125 L 3291,1121 L 3308,1121 L 3324,1125 L 3339,1131 L 3352,1141 L 3363,1153 L 3371,1167 L 3376,1183 L 3378,1200 L 3376,1216 L 3371,1232 L 3363,1246 L 3352,1258 L 3339,1268 L 3324,1274 L 3308,1278 L 3291,1278 L 3275,1274 L 3260,1268 L 3247,1258 L 3236,1246 L 3228,1232 L 3223,1216 L 3221,1200 L 3223,1183 L 3227,1170 L 3087,1031 L 3051,1031 L 3051,1051 L 3031,1051 L 3031,1113 L 3030,1119 L 3028,1125 L 3025,1130 L 3021,1135 L 2761,1395 L 2761,1769 L 2811,1769 L 2813,1766 L 2820,1758 L 2829,1751 L 2840,1747 L 2851,1745 L 2943,1744 L 2954,1746 L 2965,1749 L 2974,1754 L 2983,1762 L 2990,1770 L 2994,1780 L 2997,1791 L 2998,1802 L 2996,1813 L 2992,1824 L 2986,1833 L 2979,1841 L 2970,1848 L 2959,1852 L 2948,1854 L 2856,1855 L 2845,1853 L 2834,1850 L 2825,1845 L 2816,1837 L 2811,1831 L 2739,1831 L 2733,1830 L 2727,1828 L 2722,1825 L 2717,1821 L 2708,1812 L 2704,1808 L 2701,1802 L 2700,1797 L 2699,1790 L 2699,1382 L 2700,1376 L 2701,1370 L 2704,1365 L 2708,1360 L 2969,1100 L 2969,1051 L 2948,1051 L 2948,948 L 3051,948 L 3051,969 L 3100,969 L 3106,969 L 3111,971 L 3117,974 L 3121,978 L 3271,1127 z " style="fill-opacity:1.000000;fill:rgb(205,186,171);stroke:rgb(0,0,0);stroke-width:2"/></g>
<g fill-rule="evenodd"><path d="M 788,1674 L 786,1676 L 779,1684 L 770,1690 L 759,1695 L 748,1697 L 656,1697 L 645,1696 L 634,1693 L 625,1687 L 616,1680 L 609,1671 L 605,1661 L 602,1650 L 601,1639 L 603,1628 L 607,1618 L 613,1608 L 620,1600 L 629,1594 L 640,1589 L 651,1587 L 743,1587 L 754,1588 L 765,1591 L 774,1597 L 783,1604 L 788,1611 L 1972,1611 L 2468,1115 L 2468,1000 L 2469,993 L 2470,987 L 2473,982 L 2477,977 L 2482,973 L 2487,970 L 2493,969 L 2500,968 L 2763,968 L 2768,961 L 2777,955 L 2787,951 L 2797,949 L 2808,949 L 2818,951 L 2828,955 L 2837,961 L 2844,969 L 2849,979 L 2853,989 L 2854,1000 L 2853,1010 L 2849,1020 L 2844,1030 L 2837,1038 L 2828,1044 L 2818,1048 L 2808,1050 L 2797,1050 L 2787,1048 L 2777,1044 L 2768,1038 L 2763,1031 L 2531,1031 L 2531,1128 L 2539,1131 L 2552,1141 L 2563,1153 L 2571,1167 L 2576,1183 L 2578,1200 L 2576,1216 L 2571,1232 L 2563,1246 L 2552,1258 L 2539,1268 L 2524,1274 L 2508,1278 L 2491,1278 L 2475,1274 L 2460,1268 L 2447,1258 L 2436,1246 L 2432,1239 L 2007,1664 L 2003,1668 L 1997,1671 L 1991,1673 L 1985,1674 L 788,1674 z " style="fill-opacity:1.000000;fill:rgb(242,251,227);stroke:rgb(0,0,0);stroke-width:2"/></g>
<g fill-rule="evenodd"><path d="M 1928,650 L 2421,403 L 2421,400 L 2423,383 L 2427,370 L 2194,137 L 1505,137 L 1272,370 L 1276,383 L 1278,400 L 1276,416 L 1271,432 L 1263,446 L 1252,458 L 1239,468 L 1224,474 L 1208,478 L 1191,478 L 1175,474 L 1160,468 L 1147,458 L 1136,446 L 1127,431 L 472,431 L 463,446 L 452,458 L 439,468 L 424,474 L 408,478 L 391,478 L 375,474 L 360,468 L 347,458 L 336,446 L 328,432 L 323,416 L 321,400 L 323,383 L 328,367 L 336,353 L 347,341 L 360,331 L 375,325 L 391,321 L 408,321 L 424,325 L 439,331 L 452,341 L 463,353 L 472,368 L 1127,368 L 1136,353 L 1147,341 L 1160,331 L 1175,325 L 1191,321 L 1208,321 L 1224,325 L 1228,327 L 1471,85 L 1475,81 L 1481,78 L 1486,76 L 1493,75 L 2206,75 L 2213,76 L 2218,78 L 2224,81 L 2228,85 L 2471,327 L 2475,325 L 2491,321 L 2508,321 L 2524,325 L 2539,331 L 2552,341 L 2563,353 L 2572,368 L 3227,368 L 3236,353 L 3247,341 L 3260,331 L 3275,325 L 3291,321 L 3308,321 L 3324,325 L 3339,331 L 3352,341 L 3363,353 L 3371,367 L 3376,383 L 3378,400 L 3376,416 L 3371,432 L 3363,446 L 3352,458 L 3339,468 L 3324,474 L 3308,478 L 3291,478 L 3275,474 L 3260,468 L 3247,458 L 3236,446 L 3227,431 L 2572,431 L 2563,446 L 2552,458 L 2539,468 L 2524,474 L 2508,478 L 2491,478 L 2475,474 L 2460,468 L 2449,460 L 2037,666 L 2037,926 L 1762,926 L 1762,650 L 1928,650 z " style="fill-opacity:1.000000;fill:rgb(70,124,194);stroke:rgb(0,0,0);stroke-width:2"/></g>
<g fill-rule="evenodd"><path d="M 788,1988 L 786,1991 L 779,1999 L 770,2005 L 759,2010 L 748,2012 L 656,2012 L 645,2011 L 634,2008 L 625,2002 L 616,1995 L 609,1986 L 605,1976 L 602,1965 L 601,1954 L 603,1943 L 607,1933 L 613,1923 L 620,1915 L 629,1909 L 640,1904 L 651,1902 L 743,1902 L 754,1903 L 765,1906 L 774,1912 L 783,1919 L 788,1925 L 1236,1925 L 1325,1893 L 1326,1884 L 1331,1869 L 1339,1856 L 1349,1844 L 1362,1835 L 1376,1828 L 1392,1825 L 1407,1825 L 1423,1828 L 1437,1835 L 1450,1844 L 1460,1856 L 1468,1869 L 1473,1884 L 1474,1900 L 1473,1915 L 1468,1930 L 1460,1943 L 1450,1955 L 1437,1964 L 1423,1971 L 1407,1974 L 1392,1974 L 1376,1971 L 1362,1964 L 1349,1955 L 1347,1952 L 1253,1987 L 1248,1988 L 1242,1988 L 788,1988 z " style="fill-opacity:1.000000;fill:rgb(84,248,27);stroke:rgb(0,0,0);stroke-width:2"/></g>
<g fill-rule="evenodd"><path d="M 2811,1925 L 2813,1923 L 2820,1915 L 2829,1909 L 2840,1904 L 2851,1902 L 2943,1902 L 2954,1903 L 2965,1906 L 2974,1912 L 2983,1919 L 2990,1928 L 2994,1938 L 2997,1949 L 2998,1960 L 2996,1971 L 2992,1981 L 2986,1991 L 2979,1999 L 2970,2005 L 2959,2010 L 2948,2012 L 2856,2012 L 2845,2011 L 2834,2008 L 2825,2002 L 2816,1995 L 2811,1988 L 2257,1988 L 2251,1988 L 2245,1986 L 2239,1983 L 2235,1979 L 2225,1970 L 2223,1971 L 2207,1974 L 2192,1974 L 2176,1971 L 2162,1964 L 2149,1955 L 2139,1943 L 2131,1930 L 2126,1915 L 2125,1900 L 2126,1884 L 2131,1869 L 2139,1856 L 2149,1844 L 2162,1835 L 2176,1828 L 2192,1825 L 2207,1825 L 2223,1828 L 2237,1835 L 2250,1844 L 2260,1856 L 2268,1869 L 2273,1884 L 2274,1900 L 2273,1915 L 2269,1925 L 2270,1925 L 2811,1925 z " style="fill-opacity:1.000000;fill:rgb(232,231,141);stroke:rgb(0,0,0);stroke-width:2"/></g>
</svg>
