<?xml version="1.0" standalone="no"?>
<!DOCTYPE svg PUBLIC "-//W3C//DTD SVG 1.1//EN"
"http://www.w3.org/Graphics/SVG/1.1/DTD/svg11.dtd">
<svg width="3700" height="2500" viewBox="0 0 3700 2500" version="1.1"
xmlns="http://www.w3.org/2000/svg"
xmlns:xlink="http://www.w3.org/1999/xlink">
<g fill-rule="evenodd"><path d="M 2019,2500 L 0,2500 L 0,620 L 0,620 L 27,624 L 79,630 L 129,632 L 153,633 L 188,633 L 221,631 L 231,631 L 242,630 L 256,629 L 263,629 L 289,627 L 303,626 L 308,626 L 310,626 L 343,624 L 343,624 L 349,624 L 360,624 L 379,624 L 385,623 L 391,623 L 400,623 L 408,623 L 438,622 L 455,620 L 486,615 L 503,611 L 537,602 L 544,600 L 1012,600 L 1062,578 L 1081,576 L 1114,571 L 1134,567 L 1157,561 L 1175,556 L 1191,550 L 1208,542 L 1220,536 L 1235,528 L 1245,522 L 1258,512 L 1266,505 L 1273,499 L 1277,496 L 1279,495 L 1282,492 L 1286,489 L 1289,486 L 1294,482 L 1299,478 L 1302,476 L 1308,472 L 1308,472 L 1318,465 L 1323,461 L 1324,461 L 1329,458 L 1330,451 L 1333,434 L 1334,422 L 1334,414 L 1335,405 L 1337,393 L 1337,390 L 1348,376 L 1361,364 L 1375,354 L 1392,346 L 1563,276 L 1566,276 L 1664,235 L 1722,178 L 1732,169 L 1742,162 L 1752,159 L 1762,157 L 2037,157 L 2047,159 L 2057,162 L 2067,169 L 2077,178 L 2148,248 L 2190,349 L 2125,453 L 2107,478 L 2086,497 L 2063,511 L 2037,520 L 1905,552 L 1766,552 L 1762,555 L 1741,579 L 1726,603 L 1717,626 L 1715,650 L 1715,689 L 1712,713 L 1703,737 L 1688,760 L 1667,784 L 1525,926 L 1522,929 L 1392,929 L 1367,928 L 1351,923 L 1330,926 L 1310,930 L 1262,943 L 1256,945 L 1244,948 L 1236,951 L 1230,953 L 1208,959 L 1195,963 L 1191,964 L 1189,964 L 1160,972 L 1158,973 L 1152,974 L 1144,976 L 1122,982 L 1115,983 L 1113,984 L 1100,987 L 1096,988 L 1062,997 L 1054,999 L 988,1000 L 980,998 L 946,992 L 935,991 L 902,990 L 891,990 L 858,991 L 847,992 L 819,997 L 785,991 L 751,989 L 648,989 L 608,992 L 568,1000 L 545,1000 L 537,997 L 503,988 L 486,984 L 475,982 L 453,988 L 435,993 L 408,1003 L 391,1010 L 370,1020 L 355,1028 L 337,1039 L 323,1048 L 321,1050 L 312,1065 L 304,1082 L 297,1096 L 291,1113 L 287,1125 L 283,1141 L 280,1152 L 278,1169 L 277,1178 L 276,1195 L 276,1204 L 277,1221 L 278,1230 L 280,1247 L 283,1258 L 287,1274 L 291,1286 L 297,1303 L 304,1317 L 312,1334 L 323,1352 L 333,1368 L 350,1392 L 364,1408 L 391,1439 L 408,1455 L 450,1493 L 450,1576 L 443,1610 L 441,1622 L 436,1666 L 436,1678 L 436,1721 L 436,1733 L 441,1777 L 443,1789 L 445,1800 L 443,1810 L 441,1819 L 442,1822 L 452,1867 L 455,1880 L 468,1918 L 473,1930 L 487,1962 L 493,1973 L 494,1975 L 499,2009 L 508,2040 L 548,2159 L 558,2183 L 578,2197 L 599,2206 L 619,2212 L 640,2214 L 759,2214 L 773,2213 L 787,2210 L 801,2206 L 815,2200 L 1200,2200 L 1206,2199 L 1212,2199 L 1226,2198 L 1232,2197 L 1247,2194 L 1253,2192 L 1268,2188 L 1274,2186 L 1282,2182 L 1332,2162 L 1410,2073 L 1426,2064 L 1441,2055 L 1455,2044 L 1468,2034 L 1471,2032 L 1474,2015 L 1478,1995 L 1482,1984 L 1484,1978 L 1488,1968 L 1490,1961 L 1494,1945 L 1496,1939 L 1498,1923 L 1499,1918 L 1499,1902 L 1499,1897 L 1499,1881 L 1498,1876 L 1496,1860 L 1494,1854 L 1490,1838 L 1488,1831 L 1484,1821 L 1482,1815 L 1478,1804 L 1474,1784 L 1470,1760 L 1467,1730 L 1463,1682 L 1494,1677 L 1525,1676 L 1674,1676 L 1704,1677 L 1733,1682 L 1763,1689 L 1792,1700 L 1807,1700 L 1836,1689 L 1866,1682 L 1895,1677 L 1925,1676 L 2074,1676 L 2105,1677 L 2136,1682 L 2132,1730 L 2129,1760 L 2125,1784 L 2121,1804 L 2117,1815 L 2115,1821 L 2111,1831 L 2109,1838 L 2105,1854 L 2103,1860 L 2101,1876 L 2100,1881 L 2100,1897 L 2100,1902 L 2100,1918 L 2101,1923 L 2103,1939 L 2105,1945 L 2109,1961 L 2111,1968 L 2115,1978 L 2117,1984 L 2121,1995 L 2125,2015 L 2129,2039 L 2132,2069 L 2138,2149 L 2140,2170 L 2128,2214 L 2114,2261 L 2096,2311 L 2074,2365 L 2032,2467 L 2019,2500 z " style="fill-opacity:1.000000;fill:rgb(103,198,105);stroke:rgb(0,0,0);stroke-width:2"/></g>
<g fill-rule="evenodd"><path d="M 3700,2421 L 3545,2316 L 3528,2304 L 3359,2191 L 3348,2183 L 3311,2159 L 3274,2133 L 3265,2127 L 3221,2091 L 3215,2085 L 3200,2071 L 3169,2040 L 3145,2019 L 3122,2003 L 3099,1992 L 3076,1986 L 3071,1987 L 3059,1990 L 3058,1991 L 3048,1993 L 3036,1996 L 3027,1998 L 3014,1999 L 3006,1999 L 2993,1999 L 2985,1999 L 2972,1998 L 2963,1996 L 2951,1993 L 2941,1991 L 2940,1990 L 2928,1987 L 2914,1985 L 2898,1982 L 2874,1979 L 2874,1979 L 2861,1972 L 2840,1958 L 2827,1949 L 2800,1927 L 2787,1915 L 2752,1880 L 2739,1866 L 2715,1837 L 2691,1806 L 2687,1800 L 2712,1800 L 2814,1800 L 2839,1800 L 2879,1800 L 2898,1800 L 2919,1799 L 2935,1800 L 2948,1800 L 2962,1800 L 2972,1800 L 2985,1800 L 2993,1800 L 3006,1800 L 3014,1800 L 3027,1800 L 3037,1800 L 3051,1800 L 3064,1800 L 3080,1800 L 3080,1800 L 3095,1794 L 3107,1788 L 3125,1779 L 3138,1772 L 3145,1768 L 3153,1756 L 3159,1745 L 3171,1724 L 3177,1712 L 3187,1686 L 3192,1673 L 3201,1640 L 3205,1626 L 3212,1585 L 3250,1496 L 3250,1493 L 3291,1455 L 3308,1439 L 3335,1408 L 3349,1392 L 3366,1368 L 3376,1352 L 3387,1334 L 3395,1317 L 3402,1303 L 3408,1286 L 3412,1274 L 3416,1258 L 3419,1247 L 3421,1230 L 3422,1221 L 3423,1204 L 3423,1195 L 3422,1178 L 3421,1169 L 3419,1152 L 3416,1141 L 3412,1125 L 3408,1113 L 3402,1096 L 3395,1082 L 3387,1065 L 3378,1050 L 3376,1048 L 3362,1039 L 3344,1028 L 3329,1020 L 3308,1010 L 3291,1003 L 3264,993 L 3246,988 L 3224,982 L 3213,984 L 3196,988 L 3162,997 L 3154,1000 L 3131,1000 L 3091,992 L 3051,989 L 2948,989 L 2914,991 L 2880,997 L 2852,992 L 2841,991 L 2808,990 L 2797,990 L 2764,991 L 2753,992 L 2719,998 L 2711,1000 L 2645,1000 L 2637,997 L 2603,988 L 2586,984 L 2555,979 L 2538,977 L 2508,976 L 2491,976 L 2461,977 L 2444,979 L 2413,984 L 2396,988 L 2378,992 L 2366,1002 L 2353,1012 L 2329,1035 L 2318,1047 L 2296,1072 L 2286,1086 L 2265,1115 L 2257,1129 L 2242,1155 L 2111,1285 L 2014,1325 L 2000,1330 L 1994,1332 L 1968,1340 L 1962,1341 L 1938,1346 L 1932,1347 L 1909,1349 L 1903,1349 L 1891,1350 L 1328,1350 L 1321,1352 L 1304,1357 L 1300,1359 L 1289,1362 L 1283,1364 L 1282,1364 L 1266,1369 L 1263,1370 L 1258,1372 L 1245,1376 L 1238,1378 L 1232,1381 L 1230,1382 L 1212,1388 L 1208,1390 L 1206,1390 L 1195,1395 L 1191,1396 L 1164,1406 L 1146,1411 L 1110,1420 L 1091,1423 L 1044,1429 L 998,1449 L 960,1472 L 959,1472 L 947,1462 L 902,1422 L 891,1411 L 863,1380 L 855,1370 L 837,1346 L 830,1335 L 819,1315 L 814,1305 L 814,1304 L 811,1284 L 809,1271 L 806,1258 L 805,1251 L 804,1247 L 801,1236 L 800,1225 L 799,1215 L 798,1204 L 798,1195 L 799,1184 L 800,1174 L 801,1163 L 804,1152 L 805,1148 L 806,1141 L 809,1128 L 811,1115 L 814,1095 L 815,1078 L 817,1035 L 818,1011 L 819,997 L 847,992 L 858,991 L 891,990 L 902,990 L 935,991 L 946,992 L 980,998 L 988,1000 L 1054,999 L 1062,997 L 1096,988 L 1100,987 L 1113,984 L 1115,983 L 1122,982 L 1144,976 L 1152,974 L 1158,973 L 1160,972 L 1189,964 L 1191,964 L 1195,963 L 1208,959 L 1230,953 L 1236,951 L 1244,948 L 1256,945 L 1262,943 L 1310,930 L 1330,926 L 1351,923 L 1367,928 L 1392,929 L 1522,929 L 1552,957 L 1582,981 L 1612,1001 L 1642,1017 L 1672,1030 L 1702,1040 L 1732,1045 L 1762,1047 L 1829,1047 L 2037,962 L 2049,956 L 2059,948 L 2068,937 L 2074,926 L 2153,737 L 2203,701 L 2212,696 L 2217,692 L 2234,682 L 2240,680 L 2258,671 L 2264,669 L 2283,663 L 2289,661 L 2300,658 L 2456,621 L 2461,622 L 2491,623 L 2508,623 L 2538,622 L 2555,620 L 2586,615 L 2603,611 L 2637,602 L 2644,600 L 3155,600 L 3162,602 L 3196,611 L 3213,615 L 3244,620 L 3261,622 L 3291,623 L 3300,623 L 3308,623 L 3314,623 L 3320,624 L 3339,624 L 3350,624 L 3356,624 L 3356,624 L 3389,626 L 3391,626 L 3396,626 L 3410,627 L 3436,629 L 3443,629 L 3457,630 L 3468,631 L 3478,631 L 3511,633 L 3546,633 L 3570,632 L 3620,630 L 3672,624 L 3699,620 L 3700,620 L 3700,2421 z " style="fill-opacity:1.000000;fill:rgb(115,81,255);stroke:rgb(0,0,0);stroke-width:2"/></g>
<g fill-rule="evenodd"><path d="M 276,1204 L 276,1195 L 277,1178 L 278,1169 L 280,1152 L 283,1141 L 287,1125 L 291,1113 L 297,1096 L 304,1082 L 312,1065 L 321,1050 L 323,1048 L 337,1039 L 355,1028 L 370,1020 L 391,1010 L 408,1003 L 435,993 L 453,988 L 475,982 L 486,984 L 503,988 L 537,997 L 545,1000 L 568,1000 L 608,992 L 648,989 L 751,989 L 785,991 L 819,997 L 818,1011 L 817,1035 L 815,1078 L 814,1095 L 811,1115 L 809,1128 L 806,1141 L 805,1148 L 804,1152 L 801,1163 L 800,1174 L 799,1184 L 798,1195 L 798,1204 L 799,1215 L 800,1225 L 801,1236 L 804,1247 L 805,1251 L 806,1258 L 809,1271 L 811,1284 L 814,1304 L 814,1305 L 819,1315 L 830,1335 L 837,1346 L 855,1370 L 863,1380 L 891,1411 L 902,1422 L 947,1462 L 959,1472 L 912,1585 L 905,1626 L 901,1640 L 892,1673 L 887,1686 L 877,1712 L 871,1724 L 859,1745 L 853,1756 L 845,1768 L 838,1772 L 825,1779 L 807,1788 L 795,1794 L 780,1800 L 780,1800 L 764,1800 L 751,1800 L 737,1800 L 727,1800 L 714,1800 L 706,1800 L 693,1800 L 685,1800 L 672,1800 L 662,1800 L 648,1800 L 635,1800 L 619,1799 L 598,1800 L 579,1800 L 539,1800 L 514,1800 L 445,1800 L 443,1789 L 441,1777 L 436,1733 L 436,1721 L 436,1678 L 436,1666 L 441,1622 L 443,1610 L 450,1576 L 450,1493 L 408,1455 L 391,1439 L 364,1408 L 350,1392 L 333,1368 L 323,1352 L 312,1334 L 304,1317 L 297,1303 L 291,1286 L 287,1274 L 283,1258 L 280,1247 L 278,1230 L 277,1221 L 276,1204 z " style="fill-opacity:1.000000;fill:rgb(74,236,41);stroke:rgb(0,0,0);stroke-width:2"/></g>
<g fill-rule="evenodd"><path d="M 558,2183 L 548,2159 L 508,2040 L 499,2009 L 494,1975 L 552,1978 L 574,1979 L 598,1982 L 614,1985 L 628,1987 L 640,1990 L 641,1991 L 651,1993 L 663,1996 L 672,1998 L 685,1999 L 693,1999 L 706,1999 L 714,1999 L 727,1998 L 736,1996 L 748,1993 L 758,1991 L 759,1990 L 771,1987 L 776,1986 L 796,1991 L 815,2000 L 900,2000 L 906,1999 L 912,1999 L 926,1998 L 932,1997 L 947,1994 L 953,1992 L 968,1988 L 974,1986 L 982,1982 L 1126,1923 L 1181,1868 L 1196,1841 L 1204,1828 L 1220,1805 L 1229,1792 L 1247,1772 L 1257,1761 L 1276,1743 L 1288,1733 L 1309,1716 L 1323,1707 L 1347,1692 L 1362,1684 L 1374,1678 L 1392,1678 L 1407,1678 L 1438,1679 L 1454,1681 L 1463,1682 L 1467,1730 L 1470,1760 L 1474,1784 L 1478,1804 L 1482,1815 L 1484,1821 L 1488,1831 L 1490,1838 L 1494,1854 L 1496,1860 L 1498,1876 L 1499,1881 L 1499,1897 L 1499,1902 L 1499,1918 L 1498,1923 L 1496,1939 L 1494,1945 L 1490,1961 L 1488,1968 L 1484,1978 L 1482,1984 L 1478,1995 L 1474,2015 L 1471,2032 L 1468,2034 L 1455,2044 L 1441,2055 L 1426,2064 L 1410,2073 L 1332,2162 L 1282,2182 L 1274,2186 L 1268,2188 L 1253,2192 L 1247,2194 L 1232,2197 L 1226,2198 L 1212,2199 L 1206,2199 L 1200,2200 L 815,2200 L 801,2206 L 787,2210 L 773,2213 L 759,2214 L 640,2214 L 619,2212 L 599,2206 L 578,2197 L 558,2183 z " style="fill-opacity:1.000000;fill:rgb(205,186,171);stroke:rgb(0,0,0);stroke-width:2"/></g>
<g fill-rule="evenodd"><path d="M 468,1918 L 455,1880 L 452,1867 L 442,1822 L 441,1819 L 443,1810 L 445,1800 L 514,1800 L 539,1800 L 579,1800 L 598,1800 L 619,1799 L 635,1800 L 648,1800 L 662,1800 L 672,1800 L 685,1800 L 693,1800 L 706,1800 L 714,1800 L 727,1800 L 737,1800 L 751,1800 L 764,1800 L 780,1800 L 780,1800 L 795,1794 L 807,1788 L 825,1779 L 838,1772 L 845,1768 L 853,1756 L 859,1745 L 871,1724 L 877,1712 L 887,1686 L 892,1673 L 901,1640 L 905,1626 L 912,1585 L 959,1472 L 960,1472 L 998,1449 L 1044,1429 L 1091,1423 L 1110,1420 L 1146,1411 L 1164,1406 L 1191,1396 L 1195,1395 L 1206,1390 L 1208,1390 L 1212,1388 L 1230,1382 L 1232,1381 L 1238,1378 L 1245,1376 L 1258,1372 L 1263,1370 L 1266,1369 L 1282,1364 L 1283,1364 L 1289,1362 L 1300,1359 L 1304,1357 L 1321,1352 L 1328,1350 L 1891,1350 L 1903,1349 L 1909,1349 L 1932,1347 L 1938,1346 L 1962,1341 L 1968,1340 L 1994,1332 L 2000,1330 L 2014,1325 L 2111,1285 L 2242,1155 L 2257,1129 L 2265,1115 L 2286,1086 L 2296,1072 L 2318,1047 L 2329,1035 L 2353,1012 L 2366,1002 L 2378,992 L 2396,988 L 2413,984 L 2444,979 L 2461,977 L 2491,976 L 2508,976 L 2538,977 L 2555,979 L 2586,984 L 2603,988 L 2637,997 L 2645,1000 L 2711,1000 L 2719,998 L 2753,992 L 2764,991 L 2797,990 L 2808,990 L 2841,991 L 2852,992 L 2880,997 L 2881,1011 L 2882,1035 L 2884,1078 L 2885,1095 L 2888,1115 L 2890,1128 L 2893,1141 L 2894,1148 L 2895,1152 L 2898,1163 L 2899,1174 L 2900,1184 L 2901,1195 L 2901,1204 L 2900,1215 L 2899,1225 L 2898,1236 L 2895,1247 L 2894,1251 L 2893,1258 L 2890,1271 L 2888,1284 L 2885,1304 L 2885,1305 L 2880,1315 L 2869,1335 L 2862,1346 L 2844,1370 L 2836,1380 L 2808,1411 L 2797,1422 L 2752,1462 L 2739,1473 L 2689,1510 L 2680,1519 L 2663,1547 L 2657,1556 L 2652,1562 L 2638,1576 L 2629,1586 L 2621,1593 L 2591,1650 L 2585,1662 L 2577,1679 L 2568,1678 L 2516,1672 L 2467,1669 L 2444,1669 L 2409,1669 L 2376,1670 L 2371,1671 L 2355,1672 L 2345,1672 L 2338,1673 L 2308,1675 L 2297,1675 L 2291,1675 L 2290,1676 L 2256,1677 L 2255,1677 L 2250,1677 L 2239,1677 L 2220,1677 L 2214,1678 L 2207,1678 L 2200,1678 L 2192,1678 L 2161,1679 L 2145,1681 L 2136,1682 L 2105,1677 L 2074,1676 L 1925,1676 L 1895,1677 L 1866,1682 L 1836,1689 L 1807,1700 L 1792,1700 L 1763,1689 L 1733,1682 L 1704,1677 L 1674,1676 L 1525,1676 L 1494,1677 L 1463,1682 L 1454,1681 L 1438,1679 L 1407,1678 L 1392,1678 L 1374,1678 L 1362,1684 L 1347,1692 L 1323,1707 L 1309,1716 L 1288,1733 L 1276,1743 L 1257,1761 L 1247,1772 L 1229,1792 L 1220,1805 L 1204,1828 L 1196,1841 L 1181,1868 L 1126,1923 L 982,1982 L 974,1986 L 968,1988 L 953,1992 L 947,1994 L 932,1997 L 926,1998 L 912,1999 L 906,1999 L 900,2000 L 815,2000 L 796,1991 L 776,1986 L 771,1987 L 759,1990 L 758,1991 L 748,1993 L 736,1996 L 727,1998 L 714,1999 L 706,1999 L 693,1999 L 685,1999 L 672,1998 L 663,1996 L 651,1993 L 641,1991 L 640,1990 L 628,1987 L 614,1985 L 598,1982 L 574,1979 L 552,1978 L 494,1975 L 493,1973 L 487,1962 L 473,1930 L 468,1918 z " style="fill-opacity:1.000000;fill:rgb(242,251,227);stroke:rgb(0,0,0);stroke-width:2"/></g>
<g fill-rule="evenodd"><path d="M 2585,1662 L 2591,1650 L 2621,1593 L 2629,1586 L 2638,1576 L 2652,1562 L 2657,1556 L 2663,1547 L 2680,1519 L 2689,1510 L 2739,1473 L 2752,1462 L 2797,1422 L 2808,1411 L 2836,1380 L 2844,1370 L 2862,1346 L 2869,1335 L 2880,1315 L 2885,1305 L 2885,1304 L 2888,1284 L 2890,1271 L 2893,1258 L 2894,1251 L 2895,1247 L 2898,1236 L 2899,1225 L 2900,1215 L 2901,1204 L 2901,1195 L 2900,1184 L 2899,1174 L 2898,1163 L 2895,1152 L 2894,1148 L 2893,1141 L 2890,1128 L 2888,1115 L 2885,1095 L 2884,1078 L 2882,1035 L 2881,1011 L 2880,997 L 2914,991 L 2948,989 L 3051,989 L 3091,992 L 3131,1000 L 3154,1000 L 3162,997 L 3196,988 L 3213,984 L 3224,982 L 3246,988 L 3264,993 L 3291,1003 L 3308,1010 L 3329,1020 L 3344,1028 L 3362,1039 L 3376,1048 L 3378,1050 L 3387,1065 L 3395,1082 L 3402,1096 L 3408,1113 L 3412,1125 L 3416,1141 L 3419,1152 L 3421,1169 L 3422,1178 L 3423,1195 L 3423,1204 L 3422,1221 L 3421,1230 L 3419,1247 L 3416,1258 L 3412,1274 L 3408,1286 L 3402,1303 L 3395,1317 L 3387,1334 L 3376,1352 L 3366,1368 L 3349,1392 L 3335,1408 L 3308,1439 L 3291,1455 L 3250,1493 L 3250,1496 L 3212,1585 L 3205,1626 L 3201,1640 L 3192,1673 L 3187,1686 L 3177,1712 L 3171,1724 L 3159,1745 L 3153,1756 L 3145,1768 L 3138,1772 L 3125,1779 L 3107,1788 L 3095,1794 L 3080,1800 L 3080,1800 L 3064,1800 L 3051,1800 L 3037,1800 L 3027,1800 L 3014,1800 L 3006,1800 L 2993,1800 L 2985,1800 L 2972,1800 L 2962,1800 L 2948,1800 L 2935,1800 L 2919,1799 L 2898,1800 L 2879,1800 L 2839,1800 L 2814,1800 L 2712,1800 L 2687,1800 L 2682,1796 L 2651,1772 L 2620,1746 L 2607,1734 L 2586,1715 L 2580,1689 L 2577,1679 L 2585,1662 z " style="fill-opacity:1.000000;fill:rgb(70,124,194);stroke:rgb(0,0,0);stroke-width:2"/></g>
<g fill-rule="evenodd"><path d="M 3700,2500 L 2019,2500 L 2032,2467 L 2074,2365 L 2096,2311 L 2114,2261 L 2128,2214 L 2140,2170 L 2138,2149 L 2132,2069 L 2129,2039 L 2125,2015 L 2121,1995 L 2117,1984 L 2115,1978 L 2111,1968 L 2109,1961 L 2105,1945 L 2103,1939 L 2101,1923 L 2100,1918 L 2100,1902 L 2100,1897 L 2100,1881 L 2101,1876 L 2103,1860 L 2105,1854 L 2109,1838 L 2111,1831 L 2115,1821 L 2117,1815 L 2121,1804 L 2125,1784 L 2129,1760 L 2132,1730 L 2136,1682 L 2145,1681 L 2161,1679 L 2192,1678 L 2200,1678 L 2207,1678 L 2214,1678 L 2220,1677 L 2239,1677 L 2250,1677 L 2255,1677 L 2256,1677 L 2290,1676 L 2291,1675 L 2297,1675 L 2308,1675 L 2338,1673 L 2345,1672 L 2355,1672 L 2371,1671 L 2376,1670 L 2409,1669 L 2444,1669 L 2467,1669 L 2516,1672 L 2568,1678 L 2577,1679 L 2580,1689 L 2586,1715 L 2607,1734 L 2620,1746 L 2651,1772 L 2682,1796 L 2687,1800 L 2691,1806 L 2715,1837 L 2739,1866 L 2752,1880 L 2787,1915 L 2800,1927 L 2827,1949 L 2840,1958 L 2861,1972 L 2874,1979 L 2874,1979 L 2898,1982 L 2914,1985 L 2928,1987 L 2940,1990 L 2941,1991 L 2951,1993 L 2963,1996 L 2972,1998 L 2985,1999 L 2993,1999 L 3006,1999 L 3014,1999 L 3027,1998 L 3036,1996 L 3048,1993 L 3058,1991 L 3059,1990 L 3071,1987 L 3076,1986 L 3099,1992 L 3122,2003 L 3145,2019 L 3169,2040 L 3200,2071 L 3215,2085 L 3221,2091 L 3265,2127 L 3274,2133 L 3311,2159 L 3348,2183 L 3359,2191 L 3528,2304 L 3545,2316 L 3700,2421 L 3700,2500 z " style="fill-opacity:1.000000;fill:rgb(84,248,27);stroke:rgb(0,0,0);stroke-width:2"/></g>
<g fill-rule="evenodd"><path d="M 0,620 L 0,0 L 3700,0 L 3700,620 L 3699,620 L 3672,624 L 3620,630 L 3570,632 L 3546,633 L 3511,633 L 3478,631 L 3468,631 L 3457,630 L 3443,629 L 3436,629 L 3410,627 L 3396,626 L 3391,626 L 3389,626 L 3356,624 L 3356,624 L 3350,624 L 3339,624 L 3320,624 L 3314,623 L 3308,623 L 3300,623 L 3291,623 L 3261,622 L 3244,620 L 3213,615 L 3196,611 L 3162,602 L 3155,600 L 2644,600 L 2637,602 L 2603,611 L 2586,615 L 2555,620 L 2538,622 L 2508,623 L 2491,623 L 2461,622 L 2456,621 L 2300,658 L 2289,661 L 2283,663 L 2264,669 L 2258,671 L 2240,680 L 2234,682 L 2217,692 L 2212,696 L 2203,701 L 2153,737 L 2074,926 L 2068,937 L 2059,948 L 2049,956 L 2037,962 L 1829,1047 L 1762,1047 L 1732,1045 L 1702,1040 L 1672,1030 L 1642,1017 L 1612,1001 L 1582,981 L 1552,957 L 1522,929 L 1525,926 L 1667,784 L 1688,760 L 1703,737 L 1712,713 L 1715,689 L 1715,650 L 1717,626 L 1726,603 L 1741,579 L 1762,555 L 1766,552 L 1905,552 L 2037,520 L 2063,511 L 2086,497 L 2107,478 L 2125,453 L 2190,349 L 2148,248 L 2077,178 L 2067,169 L 2057,162 L 2047,159 L 2037,157 L 1762,157 L 1752,159 L 1742,162 L 1732,169 L 1722,178 L 1664,235 L 1566,276 L 1563,276 L 1392,346 L 1375,354 L 1361,364 L 1348,376 L 1337,390 L 1337,393 L 1335,405 L 1334,414 L 1334,422 L 1333,434 L 1330,451 L 1329,458 L 1324,461 L 1323,461 L 1318,465 L 1308,472 L 1308,472 L 1302,476 L 1299,478 L 1294,482 L 1289,486 L 1286,489 L 1282,492 L 1279,495 L 1277,496 L 1273,499 L 1266,505 L 1258,512 L 1245,522 L 1235,528 L 1220,536 L 1208,542 L 1191,550 L 1175,556 L 1157,561 L 1134,567 L 1114,571 L 1081,576 L 1062,578 L 1012,600 L 544,600 L 537,602 L 503,611 L 486,615 L 455,620 L 438,622 L 408,623 L 400,623 L 391,623 L 385,623 L 379,624 L 360,624 L 349,624 L 343,624 L 343,624 L 310,626 L 308,626 L 303,626 L 289,627 L 263,629 L 256,629 L 242,630 L 231,631 L 221,631 L 188,633 L 153,633 L 129,632 L 79,630 L 27,624 L 0,620 L 0,620 z " style="fill-opacity:1.000000;fill:rgb(232,231,141);stroke:rgb(0,0,0);stroke-width:2"/></g>
</svg>
