<?xml version="1.0" standalone="no"?>
<!DOCTYPE svg PUBLIC "-//W3C//DTD SVG 1.1//EN"
"http://www.w3.org/Graphics/SVG/1.1/DTD/svg11.dtd">
<svg width="3700" height="2500" viewBox="0 0 3700 2500" version="1.1"
xmlns="http://www.w3.org/2000/svg"
xmlns:xlink="http://www.w3.org/1999/xlink">
<g fill-rule="evenodd"><path d="M 3700,2069 L 3694,2066 L 3618,2029 L 3545,1995 L 3477,1965 L 3412,1939 L 3386,1929 L 3353,1917 L 3288,1893 L 3277,1889 L 3256,1882 L 3248,1879 L 3197,1844 L 3186,1836 L 3177,1830 L 3175,1828 L 3128,1796 L 3128,1796 L 3120,1790 L 3114,1785 L 3094,1771 L 3089,1767 L 3088,1766 L 3079,1760 L 3078,1759 L 3061,1748 L 3050,1741 L 3037,1733 L 3026,1728 L 3016,1723 L 3009,1721 L 3004,1721 L 3003,1721 L 2993,1721 L 2991,1721 L 2983,1721 L 2980,1721 L 2973,1721 L 2971,1721 L 2965,1721 L 2962,1721 L 2956,1721 L 2953,1721 L 2948,1721 L 2945,1721 L 2943,1721 L 2856,1721 L 2854,1721 L 2851,1721 L 2846,1721 L 2843,1721 L 2837,1721 L 2834,1721 L 2828,1721 L 2826,1721 L 2819,1721 L 2816,1721 L 2808,1721 L 2806,1721 L 2802,1721 L 2800,1716 L 2794,1705 L 2792,1699 L 2788,1688 L 2787,1682 L 2784,1671 L 2783,1667 L 2782,1656 L 2781,1651 L 2781,1640 L 2781,1636 L 2782,1625 L 2783,1621 L 2785,1610 L 2786,1605 L 2789,1594 L 2791,1588 L 2795,1577 L 2799,1569 L 2805,1558 L 2810,1549 L 2817,1538 L 2827,1525 L 2836,1514 L 2850,1498 L 2897,1451 L 2942,1432 L 2959,1426 L 2971,1422 L 3005,1411 L 3077,1339 L 3128,1343 L 3152,1344 L 3185,1343 L 3207,1341 L 3229,1338 L 3248,1335 L 3263,1331 L 3281,1326 L 3291,1322 L 3308,1316 L 3315,1312 L 3330,1304 L 3336,1301 L 3349,1291 L 3354,1288 L 3366,1277 L 3370,1274 L 3381,1262 L 3384,1258 L 3392,1248 L 3393,1244 L 3394,1239 L 3397,1222 L 3397,1218 L 3398,1202 L 3398,1197 L 3397,1181 L 3397,1177 L 3394,1160 L 3393,1155 L 3392,1151 L 3384,1141 L 3381,1137 L 3370,1125 L 3366,1122 L 3354,1111 L 3349,1108 L 3336,1098 L 3330,1095 L 3315,1087 L 3308,1083 L 3291,1077 L 3285,1074 L 3166,956 L 3150,949 L 3146,947 L 3140,945 L 3133,943 L 3127,942 L 3121,940 L 3115,939 L 3109,939 L 3102,938 L 3100,938 L 3079,938 L 3065,931 L 3051,928 L 2948,928 L 2938,930 L 2928,933 L 2918,940 L 2908,948 L 2897,960 L 2890,955 L 2879,949 L 2871,945 L 2861,940 L 2854,938 L 2843,934 L 2838,933 L 2827,931 L 2823,930 L 2812,929 L 2808,928 L 2797,928 L 2793,929 L 2782,930 L 2778,931 L 2767,933 L 2762,934 L 2751,938 L 2750,938 L 2500,938 L 2497,938 L 2490,939 L 2484,939 L 2478,940 L 2472,941 L 2466,943 L 2459,945 L 2453,947 L 2445,950 L 2438,953 L 2429,958 L 2423,962 L 2412,970 L 2406,974 L 2392,986 L 2385,991 L 2377,1000 L 2322,1054 L 2292,1067 L 2025,1333 L 2014,1344 L 2009,1348 L 1985,1368 L 1980,1372 L 1952,1390 L 1947,1394 L 1915,1411 L 1909,1413 L 1893,1421 L 1891,1421 L 1352,1421 L 1350,1421 L 1312,1431 L 1295,1435 L 1259,1441 L 1243,1442 L 1208,1444 L 1191,1444 L 1156,1442 L 1140,1441 L 1104,1435 L 1087,1431 L 1049,1421 L 1033,1416 L 1028,1415 L 989,1407 L 983,1406 L 941,1393 L 935,1391 L 913,1383 L 860,1361 L 841,1348 L 831,1342 L 789,1319 L 806,1261 L 819,1208 L 818,1188 L 817,1164 L 815,1121 L 814,1104 L 811,1084 L 809,1071 L 806,1058 L 805,1051 L 804,1047 L 801,1036 L 800,1025 L 799,1015 L 798,1004 L 798,995 L 799,984 L 800,974 L 801,963 L 804,952 L 805,948 L 806,941 L 809,928 L 809,928 L 820,924 L 831,919 L 842,916 L 852,913 L 863,911 L 872,909 L 882,908 L 891,908 L 902,908 L 910,908 L 921,909 L 930,911 L 941,913 L 951,916 L 961,919 L 973,924 L 983,928 L 997,935 L 1008,941 L 1024,952 L 1035,960 L 1038,962 L 1045,965 L 1055,969 L 1062,971 L 1086,979 L 1092,980 L 1122,986 L 1130,987 L 1132,988 L 1145,982 L 1157,977 L 1160,975 L 1163,974 L 1177,967 L 1191,961 L 1208,954 L 1246,940 L 1264,935 L 1313,923 L 1333,920 L 1339,919 L 1367,928 L 1392,929 L 1522,929 L 1552,957 L 1582,981 L 1612,1001 L 1642,1017 L 1672,1030 L 1702,1040 L 1732,1045 L 1762,1047 L 1828,1047 L 2037,960 L 2049,954 L 2058,946 L 2066,937 L 2072,926 L 2128,792 L 2132,783 L 2134,776 L 2145,756 L 2149,750 L 2156,739 L 2167,734 L 2172,732 L 2195,724 L 2201,723 L 2213,720 L 2462,661 L 2491,662 L 2508,662 L 2546,660 L 2563,658 L 2603,652 L 2619,648 L 2657,639 L 3142,639 L 3180,648 L 3196,652 L 3199,653 L 3218,656 L 3224,658 L 3236,660 L 3252,663 L 3260,665 L 3266,666 L 3291,672 L 3304,675 L 3308,676 L 3310,676 L 3351,687 L 3352,687 L 3358,688 L 3370,691 L 3382,694 L 3426,705 L 3446,708 L 3482,714 L 3521,718 L 3542,720 L 3592,722 L 3645,722 L 3669,721 L 3700,720 L 3700,2069 z " style="fill-opacity:1.000000;fill:rgb(103,198,105);stroke:rgb(0,0,0);stroke-width:2"/></g>
<g fill-rule="evenodd"><path d="M 2134,2500 L 0,2500 L 0,594 L 35,600 L 62,604 L 92,607 L 133,611 L 141,612 L 150,613 L 172,615 L 201,619 L 209,620 L 228,622 L 246,624 L 254,625 L 261,626 L 288,630 L 298,631 L 304,632 L 305,632 L 321,635 L 340,638 L 357,639 L 391,641 L 408,641 L 442,639 L 459,638 L 494,632 L 511,629 L 548,618 L 550,618 L 955,618 L 1064,573 L 1085,571 L 1116,567 L 1135,564 L 1157,558 L 1175,553 L 1191,547 L 1208,541 L 1220,535 L 1235,527 L 1245,521 L 1258,511 L 1266,505 L 1276,497 L 1279,495 L 1279,495 L 1284,491 L 1286,489 L 1291,485 L 1295,481 L 1299,478 L 1303,475 L 1308,472 L 1309,471 L 1318,464 L 1323,461 L 1324,461 L 1329,458 L 1330,451 L 1333,434 L 1334,422 L 1334,414 L 1335,405 L 1337,393 L 1337,390 L 1348,376 L 1361,364 L 1375,354 L 1392,346 L 1563,276 L 1566,276 L 1664,235 L 1722,178 L 1732,169 L 1742,162 L 1752,159 L 1762,157 L 2037,157 L 2047,159 L 2057,162 L 2067,169 L 2077,178 L 2148,248 L 2190,349 L 2125,453 L 2107,478 L 2086,497 L 2063,511 L 2037,520 L 1905,552 L 1766,552 L 1762,555 L 1741,579 L 1726,603 L 1717,626 L 1715,650 L 1715,689 L 1712,713 L 1703,737 L 1688,760 L 1667,784 L 1525,926 L 1522,929 L 1392,929 L 1367,928 L 1339,919 L 1333,920 L 1313,923 L 1264,935 L 1246,940 L 1208,954 L 1191,961 L 1177,967 L 1163,974 L 1160,975 L 1157,977 L 1145,982 L 1132,988 L 1130,987 L 1122,986 L 1092,980 L 1086,979 L 1062,971 L 1055,969 L 1045,965 L 1038,962 L 1035,960 L 1024,952 L 1008,941 L 997,935 L 983,928 L 973,924 L 961,919 L 951,916 L 941,913 L 930,911 L 921,909 L 910,908 L 902,908 L 891,908 L 882,908 L 872,909 L 863,911 L 852,913 L 842,916 L 831,919 L 820,924 L 809,928 L 809,928 L 794,919 L 780,913 L 765,909 L 751,908 L 648,908 L 628,910 L 608,918 L 600,918 L 595,918 L 588,918 L 578,919 L 572,920 L 562,922 L 555,924 L 544,927 L 538,929 L 532,932 L 390,990 L 385,1003 L 370,1020 L 357,1037 L 344,1054 L 333,1071 L 326,1084 L 317,1100 L 313,1110 L 306,1127 L 304,1135 L 299,1151 L 298,1158 L 295,1174 L 295,1180 L 294,1197 L 294,1202 L 295,1219 L 295,1225 L 298,1241 L 299,1248 L 304,1264 L 306,1272 L 313,1289 L 317,1299 L 318,1300 L 318,1660 L 318,1665 L 318,1671 L 319,1681 L 320,1687 L 322,1698 L 322,1699 L 325,1703 L 332,1711 L 336,1716 L 340,1720 L 479,1859 L 483,1863 L 488,1867 L 496,1874 L 501,1877 L 510,1884 L 516,1887 L 527,1893 L 533,1895 L 539,1898 L 544,1901 L 546,1910 L 549,1923 L 552,1935 L 556,1947 L 560,1956 L 565,1967 L 568,1974 L 574,1984 L 577,1989 L 584,1999 L 587,2003 L 595,2012 L 599,2015 L 607,2023 L 611,2027 L 620,2033 L 624,2036 L 626,2036 L 637,2038 L 642,2038 L 653,2039 L 656,2039 L 748,2039 L 754,2039 L 765,2038 L 771,2037 L 782,2034 L 789,2033 L 800,2029 L 805,2027 L 1242,2027 L 1245,2027 L 1251,2027 L 1258,2026 L 1263,2026 L 1267,2025 L 1338,2012 L 1340,2013 L 1356,2016 L 1366,2018 L 1382,2019 L 1392,2020 L 1407,2020 L 1417,2019 L 1433,2018 L 1443,2016 L 1459,2013 L 1470,2010 L 1475,2008 L 1478,1995 L 1482,1984 L 1484,1978 L 1488,1968 L 1490,1961 L 1494,1945 L 1496,1939 L 1498,1923 L 1499,1918 L 1499,1902 L 1499,1897 L 1499,1881 L 1498,1876 L 1496,1860 L 1494,1854 L 1490,1838 L 1488,1831 L 1484,1821 L 1482,1815 L 1478,1804 L 1474,1784 L 1470,1760 L 1470,1757 L 1497,1750 L 1525,1747 L 1674,1747 L 1695,1749 L 1716,1753 L 1737,1761 L 1758,1771 L 1841,1771 L 1862,1761 L 1883,1753 L 1904,1749 L 1925,1747 L 1985,1747 L 1992,1747 L 1999,1747 L 2013,1745 L 2019,1744 L 2035,1741 L 2041,1740 L 2057,1735 L 2063,1733 L 2072,1729 L 2074,1728 L 2102,1719 L 2134,1713 L 2132,1730 L 2129,1760 L 2125,1784 L 2121,1804 L 2117,1815 L 2115,1821 L 2111,1831 L 2109,1838 L 2105,1854 L 2103,1860 L 2101,1876 L 2100,1881 L 2100,1897 L 2100,1902 L 2100,1918 L 2101,1923 L 2103,1939 L 2105,1945 L 2109,1961 L 2111,1968 L 2115,1978 L 2117,1984 L 2121,1995 L 2125,2015 L 2129,2039 L 2132,2069 L 2138,2149 L 2142,2209 L 2145,2300 L 2144,2318 L 2143,2343 L 2134,2500 z " style="fill-opacity:1.000000;fill:rgb(115,81,255);stroke:rgb(0,0,0);stroke-width:2"/></g>
<g fill-rule="evenodd"><path d="M 294,1202 L 294,1197 L 295,1180 L 295,1174 L 298,1158 L 299,1151 L 304,1135 L 306,1127 L 313,1110 L 317,1100 L 326,1084 L 333,1071 L 344,1054 L 357,1037 L 370,1020 L 385,1003 L 390,990 L 532,932 L 538,929 L 544,927 L 555,924 L 562,922 L 572,920 L 578,919 L 588,918 L 595,918 L 600,918 L 608,918 L 628,910 L 648,908 L 751,908 L 765,909 L 780,913 L 794,919 L 809,928 L 806,941 L 805,948 L 804,952 L 801,963 L 800,974 L 799,984 L 798,995 L 798,1004 L 799,1015 L 800,1025 L 801,1036 L 804,1047 L 805,1051 L 806,1058 L 809,1071 L 811,1084 L 814,1104 L 815,1121 L 817,1164 L 818,1188 L 819,1208 L 806,1261 L 789,1319 L 781,1319 L 770,1319 L 751,1319 L 742,1319 L 725,1319 L 677,1350 L 660,1360 L 655,1362 L 650,1368 L 614,1408 L 605,1419 L 581,1452 L 573,1463 L 557,1490 L 551,1501 L 541,1524 L 536,1536 L 529,1556 L 526,1567 L 521,1586 L 519,1597 L 518,1611 L 519,1615 L 523,1627 L 529,1643 L 534,1654 L 540,1666 L 546,1676 L 552,1687 L 559,1696 L 566,1705 L 573,1713 L 574,1714 L 583,1718 L 590,1721 L 595,1721 L 596,1721 L 606,1721 L 608,1721 L 616,1721 L 619,1721 L 626,1721 L 628,1721 L 634,1721 L 637,1721 L 643,1721 L 646,1721 L 651,1721 L 654,1721 L 656,1721 L 743,1721 L 745,1721 L 748,1721 L 753,1721 L 756,1721 L 762,1721 L 765,1721 L 771,1721 L 773,1721 L 780,1721 L 783,1721 L 791,1721 L 793,1721 L 803,1721 L 804,1721 L 808,1721 L 815,1724 L 826,1728 L 837,1734 L 850,1741 L 861,1748 L 877,1759 L 888,1768 L 909,1785 L 920,1796 L 924,1799 L 904,1818 L 892,1828 L 874,1842 L 863,1850 L 849,1859 L 838,1865 L 826,1871 L 815,1876 L 808,1878 L 804,1878 L 803,1878 L 793,1878 L 791,1878 L 783,1878 L 780,1878 L 773,1878 L 771,1878 L 765,1878 L 762,1878 L 756,1878 L 753,1878 L 748,1878 L 745,1878 L 743,1878 L 656,1878 L 654,1878 L 651,1878 L 646,1878 L 643,1878 L 637,1878 L 634,1878 L 628,1878 L 626,1878 L 619,1878 L 616,1878 L 608,1878 L 606,1878 L 596,1878 L 595,1878 L 591,1878 L 584,1881 L 573,1885 L 561,1891 L 550,1897 L 544,1901 L 539,1898 L 533,1895 L 527,1893 L 516,1887 L 510,1884 L 501,1877 L 496,1874 L 488,1867 L 483,1863 L 479,1859 L 340,1720 L 336,1716 L 332,1711 L 325,1703 L 322,1699 L 322,1698 L 320,1687 L 319,1681 L 318,1671 L 318,1665 L 318,1660 L 318,1300 L 317,1299 L 313,1289 L 306,1272 L 304,1264 L 299,1248 L 298,1241 L 295,1225 L 295,1219 L 294,1202 z " style="fill-opacity:1.000000;fill:rgb(74,236,41);stroke:rgb(0,0,0);stroke-width:2"/></g>
<g fill-rule="evenodd"><path d="M 2577,1803 L 2564,1790 L 2439,1665 L 2425,1634 L 2483,1493 L 2491,1486 L 2508,1469 L 2541,1433 L 2554,1416 L 2574,1388 L 2578,1382 L 2585,1372 L 2586,1371 L 2590,1365 L 2600,1351 L 2603,1347 L 2606,1341 L 2610,1337 L 2618,1326 L 2622,1321 L 2622,1321 L 2632,1308 L 2633,1306 L 2637,1302 L 2642,1294 L 2644,1292 L 2654,1279 L 2666,1262 L 2675,1248 L 2686,1227 L 2693,1212 L 2704,1186 L 2710,1169 L 2711,1166 L 2720,1162 L 2725,1161 L 2737,1159 L 2765,1153 L 2776,1149 L 2797,1142 L 2808,1137 L 2825,1129 L 2835,1124 L 2848,1116 L 2857,1109 L 2869,1100 L 2877,1093 L 2888,1083 L 2888,1083 L 2890,1071 L 2893,1058 L 2894,1051 L 2895,1047 L 2898,1036 L 2899,1025 L 2900,1015 L 2901,1004 L 2901,995 L 2900,984 L 2899,974 L 2898,963 L 2897,960 L 2908,948 L 2918,940 L 2928,933 L 2938,930 L 2948,928 L 3051,928 L 3065,931 L 3079,938 L 3100,938 L 3102,938 L 3109,939 L 3115,939 L 3121,940 L 3127,942 L 3133,943 L 3140,945 L 3146,947 L 3150,949 L 3166,956 L 3285,1074 L 3291,1077 L 3308,1083 L 3315,1087 L 3330,1095 L 3336,1098 L 3349,1108 L 3354,1111 L 3366,1122 L 3370,1125 L 3381,1137 L 3384,1141 L 3392,1151 L 3393,1155 L 3394,1160 L 3397,1177 L 3397,1181 L 3398,1197 L 3398,1202 L 3397,1218 L 3397,1222 L 3394,1239 L 3393,1244 L 3392,1248 L 3384,1258 L 3381,1262 L 3370,1274 L 3366,1277 L 3354,1288 L 3349,1291 L 3336,1301 L 3330,1304 L 3315,1312 L 3308,1316 L 3291,1322 L 3281,1326 L 3263,1331 L 3248,1335 L 3229,1338 L 3207,1341 L 3185,1343 L 3152,1344 L 3128,1343 L 3077,1339 L 3005,1411 L 2971,1422 L 2959,1426 L 2942,1432 L 2897,1451 L 2850,1498 L 2836,1514 L 2827,1525 L 2817,1538 L 2810,1549 L 2805,1558 L 2799,1569 L 2795,1577 L 2791,1588 L 2789,1594 L 2786,1605 L 2785,1610 L 2783,1621 L 2782,1625 L 2781,1636 L 2781,1640 L 2781,1651 L 2782,1656 L 2783,1667 L 2784,1671 L 2787,1682 L 2788,1688 L 2792,1699 L 2794,1705 L 2800,1716 L 2802,1721 L 2806,1721 L 2808,1721 L 2816,1721 L 2819,1721 L 2826,1721 L 2828,1721 L 2834,1721 L 2837,1721 L 2843,1721 L 2846,1721 L 2851,1721 L 2854,1721 L 2856,1721 L 2943,1721 L 2945,1721 L 2948,1721 L 2953,1721 L 2956,1721 L 2962,1721 L 2965,1721 L 2971,1721 L 2973,1721 L 2980,1721 L 2983,1721 L 2991,1721 L 2993,1721 L 3003,1721 L 3004,1721 L 3009,1721 L 3016,1723 L 3026,1728 L 3037,1733 L 3050,1741 L 3061,1748 L 3078,1759 L 3079,1760 L 3088,1766 L 3089,1767 L 3094,1771 L 3114,1785 L 3120,1790 L 3128,1796 L 3128,1796 L 3175,1828 L 3177,1830 L 3186,1836 L 3197,1844 L 3248,1879 L 3223,1879 L 3171,1878 L 3139,1878 L 3116,1878 L 3090,1878 L 3079,1878 L 3058,1878 L 3054,1878 L 3035,1878 L 3034,1878 L 3018,1878 L 3018,1878 L 3004,1878 L 3003,1878 L 2993,1878 L 2991,1878 L 2983,1878 L 2980,1878 L 2973,1878 L 2971,1878 L 2965,1878 L 2962,1878 L 2956,1878 L 2953,1878 L 2948,1878 L 2945,1878 L 2943,1878 L 2856,1878 L 2854,1878 L 2851,1878 L 2846,1878 L 2843,1878 L 2837,1878 L 2834,1878 L 2828,1878 L 2826,1878 L 2819,1878 L 2816,1878 L 2808,1878 L 2806,1878 L 2796,1878 L 2795,1878 L 2791,1878 L 2791,1878 L 2739,1878 L 2734,1878 L 2728,1878 L 2719,1877 L 2713,1876 L 2703,1874 L 2697,1872 L 2686,1869 L 2680,1867 L 2674,1865 L 2661,1859 L 2655,1856 L 2649,1853 L 2634,1845 L 2628,1842 L 2610,1830 L 2604,1826 L 2583,1808 L 2577,1803 z " style="fill-opacity:1.000000;fill:rgb(205,186,171);stroke:rgb(0,0,0);stroke-width:2"/></g>
<g fill-rule="evenodd"><path d="M 529,1643 L 523,1627 L 519,1615 L 518,1611 L 519,1597 L 521,1586 L 526,1567 L 529,1556 L 536,1536 L 541,1524 L 551,1501 L 557,1490 L 573,1463 L 581,1452 L 605,1419 L 614,1408 L 650,1368 L 655,1362 L 660,1360 L 677,1350 L 725,1319 L 742,1319 L 751,1319 L 770,1319 L 781,1319 L 789,1319 L 831,1342 L 841,1348 L 860,1361 L 913,1383 L 935,1391 L 941,1393 L 983,1406 L 989,1407 L 1028,1415 L 1033,1416 L 1049,1421 L 1087,1431 L 1104,1435 L 1140,1441 L 1156,1442 L 1191,1444 L 1208,1444 L 1243,1442 L 1259,1441 L 1295,1435 L 1312,1431 L 1350,1421 L 1352,1421 L 1891,1421 L 1893,1421 L 1909,1413 L 1915,1411 L 1947,1394 L 1952,1390 L 1980,1372 L 1985,1368 L 2009,1348 L 2014,1344 L 2025,1333 L 2292,1067 L 2322,1054 L 2377,1000 L 2385,991 L 2392,986 L 2406,974 L 2412,970 L 2423,962 L 2429,958 L 2438,953 L 2445,950 L 2453,947 L 2459,945 L 2466,943 L 2472,941 L 2478,940 L 2484,939 L 2490,939 L 2497,938 L 2500,938 L 2750,938 L 2751,938 L 2762,934 L 2767,933 L 2778,931 L 2782,930 L 2793,929 L 2797,928 L 2808,928 L 2812,929 L 2823,930 L 2827,931 L 2838,933 L 2843,934 L 2854,938 L 2861,940 L 2871,945 L 2879,949 L 2890,955 L 2897,960 L 2898,963 L 2899,974 L 2900,984 L 2901,995 L 2901,1004 L 2900,1015 L 2899,1025 L 2898,1036 L 2895,1047 L 2894,1051 L 2893,1058 L 2890,1071 L 2888,1083 L 2888,1083 L 2877,1093 L 2869,1100 L 2857,1109 L 2848,1116 L 2835,1124 L 2825,1129 L 2808,1137 L 2797,1142 L 2776,1149 L 2765,1153 L 2737,1159 L 2725,1161 L 2720,1162 L 2711,1166 L 2710,1169 L 2704,1186 L 2693,1212 L 2686,1227 L 2675,1248 L 2666,1262 L 2654,1279 L 2644,1292 L 2642,1294 L 2637,1302 L 2633,1306 L 2632,1308 L 2622,1321 L 2622,1321 L 2618,1326 L 2610,1337 L 2606,1341 L 2603,1347 L 2600,1351 L 2590,1365 L 2586,1371 L 2585,1372 L 2578,1382 L 2574,1388 L 2554,1416 L 2541,1433 L 2508,1469 L 2491,1486 L 2483,1493 L 2425,1634 L 2401,1635 L 2381,1637 L 2322,1645 L 2303,1648 L 2259,1659 L 2242,1664 L 2207,1676 L 2192,1682 L 2164,1695 L 2150,1703 L 2134,1713 L 2102,1719 L 2074,1728 L 2072,1729 L 2063,1733 L 2057,1735 L 2041,1740 L 2035,1741 L 2019,1744 L 2013,1745 L 1999,1747 L 1992,1747 L 1985,1747 L 1925,1747 L 1904,1749 L 1883,1753 L 1862,1761 L 1841,1771 L 1758,1771 L 1737,1761 L 1716,1753 L 1695,1749 L 1674,1747 L 1525,1747 L 1497,1750 L 1470,1757 L 1456,1754 L 1439,1752 L 1423,1750 L 1407,1749 L 1392,1749 L 1376,1750 L 1360,1752 L 1343,1754 L 1328,1758 L 1310,1763 L 1294,1768 L 1274,1776 L 1258,1783 L 1234,1795 L 1231,1797 L 1214,1799 L 924,1799 L 920,1796 L 909,1785 L 888,1768 L 877,1759 L 861,1748 L 850,1741 L 837,1734 L 826,1728 L 815,1724 L 808,1721 L 804,1721 L 803,1721 L 793,1721 L 791,1721 L 783,1721 L 780,1721 L 773,1721 L 771,1721 L 765,1721 L 762,1721 L 756,1721 L 753,1721 L 748,1721 L 745,1721 L 743,1721 L 656,1721 L 654,1721 L 651,1721 L 646,1721 L 643,1721 L 637,1721 L 634,1721 L 628,1721 L 626,1721 L 619,1721 L 616,1721 L 608,1721 L 606,1721 L 596,1721 L 595,1721 L 590,1721 L 583,1718 L 574,1714 L 573,1713 L 566,1705 L 559,1696 L 552,1687 L 546,1676 L 540,1666 L 534,1654 L 529,1643 z " style="fill-opacity:1.000000;fill:rgb(242,251,227);stroke:rgb(0,0,0);stroke-width:2"/></g>
<g fill-rule="evenodd"><path d="M 0,594 L 0,0 L 3700,0 L 3700,720 L 3669,721 L 3645,722 L 3592,722 L 3542,720 L 3521,718 L 3482,714 L 3446,708 L 3426,705 L 3382,694 L 3370,691 L 3358,688 L 3352,687 L 3351,687 L 3310,676 L 3308,676 L 3304,675 L 3291,672 L 3266,666 L 3260,665 L 3252,663 L 3236,660 L 3224,658 L 3218,656 L 3199,653 L 3196,652 L 3180,648 L 3142,639 L 2657,639 L 2619,648 L 2603,652 L 2563,658 L 2546,660 L 2508,662 L 2491,662 L 2462,661 L 2213,720 L 2201,723 L 2195,724 L 2172,732 L 2167,734 L 2156,739 L 2149,750 L 2145,756 L 2134,776 L 2132,783 L 2128,792 L 2072,926 L 2066,937 L 2058,946 L 2049,954 L 2037,960 L 1828,1047 L 1762,1047 L 1732,1045 L 1702,1040 L 1672,1030 L 1642,1017 L 1612,1001 L 1582,981 L 1552,957 L 1522,929 L 1525,926 L 1667,784 L 1688,760 L 1703,737 L 1712,713 L 1715,689 L 1715,650 L 1717,626 L 1726,603 L 1741,579 L 1762,555 L 1766,552 L 1905,552 L 2037,520 L 2063,511 L 2086,497 L 2107,478 L 2125,453 L 2190,349 L 2148,248 L 2077,178 L 2067,169 L 2057,162 L 2047,159 L 2037,157 L 1762,157 L 1752,159 L 1742,162 L 1732,169 L 1722,178 L 1664,235 L 1566,276 L 1563,276 L 1392,346 L 1375,354 L 1361,364 L 1348,376 L 1337,390 L 1337,393 L 1335,405 L 1334,414 L 1334,422 L 1333,434 L 1330,451 L 1329,458 L 1324,461 L 1323,461 L 1318,464 L 1309,471 L 1308,472 L 1303,475 L 1299,478 L 1295,481 L 1291,485 L 1286,489 L 1284,491 L 1279,495 L 1279,495 L 1276,497 L 1266,505 L 1258,511 L 1245,521 L 1235,527 L 1220,535 L 1208,541 L 1191,547 L 1175,553 L 1157,558 L 1135,564 L 1116,567 L 1085,571 L 1064,573 L 955,618 L 550,618 L 548,618 L 511,629 L 494,632 L 459,638 L 442,639 L 408,641 L 391,641 L 357,639 L 340,638 L 321,635 L 305,632 L 304,632 L 298,631 L 288,630 L 261,626 L 254,625 L 246,624 L 228,622 L 209,620 L 201,619 L 172,615 L 150,613 L 141,612 L 133,611 L 92,607 L 62,604 L 35,600 L 0,594 z " style="fill-opacity:1.000000;fill:rgb(70,124,194);stroke:rgb(0,0,0);stroke-width:2"/></g>
<g fill-rule="evenodd"><path d="M 560,1956 L 556,1947 L 552,1935 L 549,1923 L 546,1910 L 544,1901 L 550,1897 L 561,1891 L 573,1885 L 584,1881 L 591,1878 L 595,1878 L 596,1878 L 606,1878 L 608,1878 L 616,1878 L 619,1878 L 626,1878 L 628,1878 L 634,1878 L 637,1878 L 643,1878 L 646,1878 L 651,1878 L 654,1878 L 656,1878 L 743,1878 L 745,1878 L 748,1878 L 753,1878 L 756,1878 L 762,1878 L 765,1878 L 771,1878 L 773,1878 L 780,1878 L 783,1878 L 791,1878 L 793,1878 L 803,1878 L 804,1878 L 808,1878 L 815,1876 L 826,1871 L 838,1865 L 849,1859 L 863,1850 L 874,1842 L 892,1828 L 904,1818 L 924,1799 L 1214,1799 L 1231,1797 L 1234,1795 L 1258,1783 L 1274,1776 L 1294,1768 L 1310,1763 L 1328,1758 L 1343,1754 L 1360,1752 L 1376,1750 L 1392,1749 L 1407,1749 L 1423,1750 L 1439,1752 L 1456,1754 L 1470,1757 L 1470,1760 L 1474,1784 L 1478,1804 L 1482,1815 L 1484,1821 L 1488,1831 L 1490,1838 L 1494,1854 L 1496,1860 L 1498,1876 L 1499,1881 L 1499,1897 L 1499,1902 L 1499,1918 L 1498,1923 L 1496,1939 L 1494,1945 L 1490,1961 L 1488,1968 L 1484,1978 L 1482,1984 L 1478,1995 L 1475,2008 L 1470,2010 L 1459,2013 L 1443,2016 L 1433,2018 L 1417,2019 L 1407,2020 L 1392,2020 L 1382,2019 L 1366,2018 L 1356,2016 L 1340,2013 L 1338,2012 L 1267,2025 L 1263,2026 L 1258,2026 L 1251,2027 L 1245,2027 L 1242,2027 L 805,2027 L 800,2029 L 789,2033 L 782,2034 L 771,2037 L 765,2038 L 754,2039 L 748,2039 L 656,2039 L 653,2039 L 642,2038 L 637,2038 L 626,2036 L 624,2036 L 620,2033 L 611,2027 L 607,2023 L 599,2015 L 595,2012 L 587,2003 L 584,1999 L 577,1989 L 574,1984 L 568,1974 L 565,1967 L 560,1956 z " style="fill-opacity:1.000000;fill:rgb(84,248,27);stroke:rgb(0,0,0);stroke-width:2"/></g>
<g fill-rule="evenodd"><path d="M 3700,2500 L 2134,2500 L 2143,2343 L 2144,2318 L 2145,2300 L 2142,2209 L 2138,2149 L 2132,2069 L 2129,2039 L 2125,2015 L 2121,1995 L 2117,1984 L 2115,1978 L 2111,1968 L 2109,1961 L 2105,1945 L 2103,1939 L 2101,1923 L 2100,1918 L 2100,1902 L 2100,1897 L 2100,1881 L 2101,1876 L 2103,1860 L 2105,1854 L 2109,1838 L 2111,1831 L 2115,1821 L 2117,1815 L 2121,1804 L 2125,1784 L 2129,1760 L 2132,1730 L 2134,1713 L 2150,1703 L 2164,1695 L 2192,1682 L 2207,1676 L 2242,1664 L 2259,1659 L 2303,1648 L 2322,1645 L 2381,1637 L 2401,1635 L 2425,1634 L 2439,1665 L 2564,1790 L 2577,1803 L 2583,1808 L 2604,1826 L 2610,1830 L 2628,1842 L 2634,1845 L 2649,1853 L 2655,1856 L 2661,1859 L 2674,1865 L 2680,1867 L 2686,1869 L 2697,1872 L 2703,1874 L 2713,1876 L 2719,1877 L 2728,1878 L 2734,1878 L 2739,1878 L 2791,1878 L 2791,1878 L 2795,1878 L 2796,1878 L 2806,1878 L 2808,1878 L 2816,1878 L 2819,1878 L 2826,1878 L 2828,1878 L 2834,1878 L 2837,1878 L 2843,1878 L 2846,1878 L 2851,1878 L 2854,1878 L 2856,1878 L 2943,1878 L 2945,1878 L 2948,1878 L 2953,1878 L 2956,1878 L 2962,1878 L 2965,1878 L 2971,1878 L 2973,1878 L 2980,1878 L 2983,1878 L 2991,1878 L 2993,1878 L 3003,1878 L 3004,1878 L 3018,1878 L 3018,1878 L 3034,1878 L 3035,1878 L 3054,1878 L 3058,1878 L 3079,1878 L 3090,1878 L 3116,1878 L 3139,1878 L 3171,1878 L 3223,1879 L 3248,1879 L 3256,1882 L 3277,1889 L 3288,1893 L 3353,1917 L 3386,1929 L 3412,1939 L 3477,1965 L 3545,1995 L 3618,2029 L 3694,2066 L 3700,2069 L 3700,2500 z " style="fill-opacity:1.000000;fill:rgb(232,231,141);stroke:rgb(0,0,0);stroke-width:2"/></g>
</svg>
