<?xml version="1.0" standalone="no"?>
<!DOCTYPE svg PUBLIC "-//W3C//DTD SVG 1.1//EN"
"http://www.w3.org/Graphics/SVG/1.1/DTD/svg11.dtd">
<svg width="3700" height="2500" viewBox="0 0 3700 2500" version="1.1"
xmlns="http://www.w3.org/2000/svg"
xmlns:xlink="http://www.w3.org/1999/xlink">
<g fill-rule="evenodd"><path d="M 1674,1869 L 1925,1869 L 1925,1821 L 2074,1821 L 2074,1978 L 1925,1978 L 1925,1931 L 1674,1931 L 1674,1978 L 1631,1978 L 1631,2040 L 1630,2045 L 1629,2050 L 1627,2055 L 1624,2059 L 1424,2318 L 1420,2323 L 1416,2326 L 1411,2328 L 1405,2330 L 1400,2331 L 500,2331 L 494,2330 L 488,2328 L 483,2326 L 479,2322 L 475,2318 L 175,1918 L 172,1914 L 170,1909 L 169,1904 L 169,1900 L 169,1000 L 169,993 L 171,988 L 174,982 L 178,978 L 378,778 L 382,774 L 388,771 L 393,769 L 400,769 L 1086,769 L 1307,530 L 1312,526 L 1317,523 L 1323,521 L 1330,521 L 1392,521 L 1392,414 L 1623,414 L 1744,293 L 1748,290 L 1754,287 L 1760,285 L 1762,285 L 1762,178 L 2037,178 L 2037,453 L 1762,453 L 1762,363 L 1667,458 L 1667,689 L 1392,689 L 1392,583 L 1343,583 L 1122,821 L 1117,825 L 1112,828 L 1106,830 L 1100,831 L 412,831 L 231,1012 L 231,1889 L 515,2269 L 1384,2269 L 1569,2030 L 1569,1978 L 1525,1978 L 1525,1821 L 1674,1821 L 1674,1869 z " style="fill-opacity:1.000000;fill:rgb(103,198,105);stroke:rgb(0,0,0);stroke-width:2"/></g>
<g fill-rule="evenodd"><path d="M 937,1231 L 931,1238 L 922,1244 L 912,1248 L 902,1250 L 891,1250 L 881,1248 L 871,1244 L 862,1238 L 855,1230 L 850,1220 L 846,1210 L 845,1200 L 846,1189 L 850,1179 L 855,1169 L 862,1161 L 871,1155 L 881,1151 L 891,1149 L 902,1149 L 912,1151 L 922,1155 L 931,1161 L 937,1169 L 1127,1169 L 1128,1167 L 1136,1153 L 1147,1141 L 1160,1131 L 1175,1125 L 1191,1121 L 1208,1121 L 1224,1125 L 1239,1131 L 1252,1141 L 1263,1153 L 1271,1167 L 1272,1169 L 1878,1169 L 2278,777 L 2282,774 L 2288,771 L 2294,769 L 2300,769 L 3300,769 L 3306,769 L 3311,771 L 3317,774 L 3321,778 L 3521,978 L 3525,982 L 3528,988 L 3530,993 L 3531,1000 L 3531,1600 L 3530,1606 L 3528,1611 L 3525,1617 L 3521,1621 L 3221,1921 L 3217,1925 L 3211,1928 L 3206,1930 L 3200,1931 L 3050,1931 L 3048,1935 L 3040,1944 L 3029,1951 L 3018,1956 L 3006,1959 L 2993,1959 L 2981,1956 L 2970,1951 L 2959,1944 L 2951,1935 L 2945,1924 L 2941,1912 L 2940,1900 L 2941,1887 L 2945,1875 L 2951,1864 L 2959,1855 L 2970,1848 L 2981,1843 L 2993,1840 L 3006,1840 L 3018,1843 L 3029,1848 L 3040,1855 L 3048,1864 L 3050,1869 L 3187,1869 L 3469,1587 L 3469,1012 L 3287,831 L 2312,831 L 1913,1222 L 1908,1225 L 1903,1228 L 1897,1230 L 1891,1231 L 1272,1231 L 1271,1232 L 1263,1246 L 1252,1258 L 1239,1268 L 1224,1274 L 1208,1278 L 1191,1278 L 1175,1274 L 1160,1268 L 1147,1258 L 1136,1246 L 1128,1232 L 1127,1231 L 937,1231 z " style="fill-opacity:1.000000;fill:rgb(115,81,255);stroke:rgb(0,0,0);stroke-width:2"/></g>
<g fill-rule="evenodd"><path d="M 731,1251 L 731,1648 L 740,1655 L 748,1664 L 754,1675 L 758,1687 L 759,1700 L 758,1712 L 754,1724 L 748,1735 L 740,1744 L 729,1751 L 718,1756 L 706,1759 L 693,1759 L 681,1756 L 670,1751 L 659,1744 L 651,1735 L 645,1724 L 641,1712 L 640,1700 L 641,1687 L 645,1675 L 651,1664 L 659,1655 L 669,1648 L 669,1251 L 648,1251 L 648,1231 L 472,1231 L 471,1232 L 463,1246 L 452,1258 L 439,1268 L 424,1274 L 408,1278 L 391,1278 L 375,1274 L 360,1268 L 347,1258 L 336,1246 L 328,1232 L 323,1216 L 321,1200 L 323,1183 L 328,1167 L 336,1153 L 347,1141 L 360,1131 L 375,1125 L 391,1121 L 408,1121 L 424,1125 L 439,1131 L 452,1141 L 463,1153 L 471,1167 L 472,1169 L 648,1169 L 648,1148 L 751,1148 L 751,1251 L 731,1251 z " style="fill-opacity:1.000000;fill:rgb(74,236,41);stroke:rgb(0,0,0);stroke-width:2"/></g>
<g fill-rule="evenodd"><path d="M 759,2131 L 759,2159 L 640,2159 L 640,2040 L 759,2040 L 759,2069 L 1187,2069 L 1330,1925 L 1326,1915 L 1325,1900 L 1326,1884 L 1331,1869 L 1339,1856 L 1349,1844 L 1362,1835 L 1376,1828 L 1392,1825 L 1407,1825 L 1423,1828 L 1437,1835 L 1450,1844 L 1460,1856 L 1468,1869 L 1473,1884 L 1474,1900 L 1473,1915 L 1468,1930 L 1460,1943 L 1450,1955 L 1437,1964 L 1423,1971 L 1407,1974 L 1392,1974 L 1376,1971 L 1373,1969 L 1221,2121 L 1217,2125 L 1211,2128 L 1206,2130 L 1200,2131 L 759,2131 z " style="fill-opacity:1.000000;fill:rgb(205,186,171);stroke:rgb(0,0,0);stroke-width:2"/></g>
<g fill-rule="evenodd"><path d="M 750,1931 L 748,1935 L 740,1944 L 729,1951 L 718,1956 L 706,1959 L 693,1959 L 681,1956 L 670,1951 L 659,1944 L 651,1935 L 645,1924 L 641,1912 L 640,1900 L 641,1887 L 645,1875 L 651,1864 L 659,1855 L 670,1848 L 681,1843 L 693,1840 L 706,1840 L 718,1843 L 729,1848 L 740,1855 L 748,1864 L 750,1869 L 887,1869 L 1278,1478 L 1282,1474 L 1288,1471 L 1293,1469 L 1300,1469 L 2187,1469 L 2427,1229 L 2423,1216 L 2421,1200 L 2423,1183 L 2428,1167 L 2436,1153 L 2447,1141 L 2460,1131 L 2475,1125 L 2491,1121 L 2508,1121 L 2524,1125 L 2539,1131 L 2552,1141 L 2563,1153 L 2571,1167 L 2572,1169 L 2762,1169 L 2768,1161 L 2777,1155 L 2787,1151 L 2797,1149 L 2808,1149 L 2818,1151 L 2828,1155 L 2837,1161 L 2844,1169 L 2849,1179 L 2853,1189 L 2854,1200 L 2853,1210 L 2849,1220 L 2844,1230 L 2837,1238 L 2828,1244 L 2818,1248 L 2808,1250 L 2797,1250 L 2787,1248 L 2777,1244 L 2768,1238 L 2762,1231 L 2572,1231 L 2571,1232 L 2563,1246 L 2552,1258 L 2539,1268 L 2524,1274 L 2508,1278 L 2491,1278 L 2475,1274 L 2471,1272 L 2221,1521 L 2217,1525 L 2211,1528 L 2206,1530 L 2200,1531 L 1312,1531 L 921,1921 L 917,1925 L 911,1928 L 906,1930 L 900,1931 L 750,1931 z " style="fill-opacity:1.000000;fill:rgb(242,251,227);stroke:rgb(0,0,0);stroke-width:2"/></g>
<g fill-rule="evenodd"><path d="M 2969,1251 L 2948,1251 L 2948,1148 L 3051,1148 L 3051,1169 L 3227,1169 L 3228,1167 L 3236,1153 L 3247,1141 L 3260,1131 L 3275,1125 L 3291,1121 L 3308,1121 L 3324,1125 L 3339,1131 L 3352,1141 L 3363,1153 L 3371,1167 L 3376,1183 L 3378,1200 L 3376,1216 L 3371,1232 L 3363,1246 L 3352,1258 L 3339,1268 L 3324,1274 L 3308,1278 L 3291,1278 L 3275,1274 L 3260,1268 L 3247,1258 L 3236,1246 L 3228,1232 L 3227,1231 L 3051,1231 L 3051,1251 L 3031,1251 L 3031,1648 L 3040,1655 L 3048,1664 L 3054,1675 L 3058,1687 L 3059,1700 L 3058,1712 L 3054,1724 L 3048,1735 L 3040,1744 L 3029,1751 L 3018,1756 L 3006,1759 L 2993,1759 L 2981,1756 L 2970,1751 L 2959,1744 L 2951,1735 L 2945,1724 L 2941,1712 L 2940,1700 L 2941,1687 L 2945,1675 L 2951,1664 L 2959,1655 L 2969,1648 L 2969,1251 z " style="fill-opacity:1.000000;fill:rgb(70,124,194);stroke:rgb(0,0,0);stroke-width:2"/></g>
<g fill-rule="evenodd"><path d="M 2940,2069 L 2940,2040 L 3059,2040 L 3059,2159 L 2940,2159 L 2940,2131 L 2400,2131 L 2393,2130 L 2388,2128 L 2382,2125 L 2378,2121 L 2226,1969 L 2223,1971 L 2207,1974 L 2192,1974 L 2176,1971 L 2162,1964 L 2149,1955 L 2139,1943 L 2131,1930 L 2126,1915 L 2125,1900 L 2126,1884 L 2131,1869 L 2139,1856 L 2149,1844 L 2162,1835 L 2176,1828 L 2192,1825 L 2207,1825 L 2223,1828 L 2237,1835 L 2250,1844 L 2260,1856 L 2268,1869 L 2273,1884 L 2274,1900 L 2273,1915 L 2269,1925 L 2412,2069 L 2940,2069 z " style="fill-opacity:1.000000;fill:rgb(84,248,27);stroke:rgb(0,0,0);stroke-width:2"/></g>
<g fill-rule="evenodd"><path d="M 1928,650 L 2421,403 L 2421,400 L 2423,383 L 2427,370 L 2194,137 L 1505,137 L 1272,370 L 1276,383 L 1278,400 L 1276,416 L 1271,432 L 1263,446 L 1252,458 L 1239,468 L 1224,474 L 1208,478 L 1191,478 L 1175,474 L 1160,468 L 1147,458 L 1136,446 L 1127,431 L 472,431 L 463,446 L 452,458 L 439,468 L 424,474 L 408,478 L 391,478 L 375,474 L 360,468 L 347,458 L 336,446 L 328,432 L 323,416 L 321,400 L 323,383 L 328,367 L 336,353 L 347,341 L 360,331 L 375,325 L 391,321 L 408,321 L 424,325 L 439,331 L 452,341 L 463,353 L 472,368 L 1127,368 L 1136,353 L 1147,341 L 1160,331 L 1175,325 L 1191,321 L 1208,321 L 1224,325 L 1228,327 L 1471,85 L 1475,81 L 1481,78 L 1486,76 L 1493,75 L 2206,75 L 2213,76 L 2218,78 L 2224,81 L 2228,85 L 2471,327 L 2475,325 L 2491,321 L 2508,321 L 2524,325 L 2539,331 L 2552,341 L 2563,353 L 2572,368 L 3227,368 L 3236,353 L 3247,341 L 3260,331 L 3275,325 L 3291,321 L 3308,321 L 3324,325 L 3339,331 L 3352,341 L 3363,353 L 3371,367 L 3376,383 L 3378,400 L 3376,416 L 3371,432 L 3363,446 L 3352,458 L 3339,468 L 3324,474 L 3308,478 L 3291,478 L 3275,474 L 3260,468 L 3247,458 L 3236,446 L 3227,431 L 2572,431 L 2563,446 L 2552,458 L 2539,468 L 2524,474 L 2508,478 L 2491,478 L 2475,474 L 2460,468 L 2449,460 L 2037,666 L 2037,926 L 1762,926 L 1762,650 L 1928,650 z " style="fill-opacity:1.000000;fill:rgb(232,231,141);stroke:rgb(0,0,0);stroke-width:2"/></g>
</svg>
