<?xml version="1.0" standalone="no"?>
<!DOCTYPE svg PUBLIC "-//W3C//DTD SVG 1.1//EN"
"http://www.w3.org/Graphics/SVG/1.1/DTD/svg11.dtd">
<svg width="3275" height="2052" viewBox="0 0 3275 2052" version="1.1"
xmlns="http://www.w3.org/2000/svg"
xmlns:xlink="http://www.w3.org/1999/xlink">
<g fill-rule="evenodd"><path d="M 3274,1051 L 3274,1195 L 3274,1201 L 3272,1207 L 3269,1212 L 3265,1217 L 2895,1587 L 2890,1591 L 2885,1594 L 2879,1596 L 2873,1597 L 2782,1597 L 2781,1599 L 2773,1607 L 2764,1614 L 2753,1618 L 2743,1620 L 2650,1621 L 2639,1620 L 2629,1616 L 2619,1611 L 2610,1604 L 2604,1595 L 2599,1585 L 2596,1574 L 2595,1563 L 2597,1552 L 2601,1541 L 2607,1532 L 2615,1524 L 2624,1517 L 2634,1513 L 2645,1511 L 2737,1510 L 2748,1512 L 2759,1515 L 2768,1520 L 2777,1528 L 2782,1535 L 2860,1535 L 3212,1182 L 3212,1064 L 2980,832 L 2021,832 L 1708,1145 L 1703,1149 L 1697,1152 L 1692,1154 L 1686,1154 L 1066,1154 L 1066,1155 L 1058,1169 L 1047,1182 L 1034,1191 L 1019,1198 L 1002,1201 L 986,1201 L 970,1198 L 955,1191 L 942,1182 L 931,1169 L 922,1155 L 922,1154 L 891,1154 L 885,1154 L 879,1152 L 874,1149 L 869,1145 L 698,974 L 696,974 L 686,974 L 675,972 L 666,968 L 657,961 L 650,953 L 644,944 L 641,934 L 640,923 L 641,913 L 644,902 L 650,893 L 657,885 L 666,879 L 675,875 L 686,872 L 696,872 L 707,875 L 717,879 L 725,885 L 733,893 L 738,902 L 741,913 L 742,923 L 742,930 L 904,1092 L 922,1092 L 922,1091 L 931,1077 L 942,1065 L 955,1055 L 970,1048 L 986,1045 L 1002,1045 L 1019,1048 L 1034,1055 L 1047,1065 L 1058,1077 L 1066,1091 L 1066,1092 L 1673,1092 L 1986,779 L 1990,775 L 1996,772 L 2002,771 L 2008,770 L 2993,770 L 2999,771 L 3005,772 L 3010,775 L 3015,779 L 3265,1029 L 3269,1034 L 3272,1039 L 3274,1045 L 3274,1051 z " style="fill-opacity:1.000000;fill:rgb(103,198,105);stroke:rgb(0,0,0);stroke-width:2"/></g>
<g fill-rule="evenodd"><path d="M 1337,2052 L 393,2052 L 387,2051 L 381,2049 L 376,2046 L 371,2042 L 9,1680 L 5,1675 L 2,1670 L 0,1664 L 0,1658 L 0,845 L 0,839 L 2,833 L 5,827 L 9,823 L 94,738 L 99,734 L 104,731 L 110,729 L 116,729 L 827,729 L 1102,453 L 1107,450 L 1112,447 L 1118,445 L 1124,444 L 1186,444 L 1186,338 L 1418,338 L 1538,217 L 1543,213 L 1548,211 L 1554,209 L 1556,209 L 1556,101 L 1832,101 L 1832,377 L 1556,377 L 1556,287 L 1462,381 L 1462,613 L 1186,613 L 1186,506 L 1137,506 L 862,781 L 857,785 L 852,788 L 846,790 L 840,791 L 129,791 L 62,858 L 62,1645 L 406,1990 L 1324,1990 L 1363,1951 L 1363,1902 L 1319,1902 L 1319,1744 L 1469,1744 L 1469,1792 L 1719,1792 L 1719,1744 L 1869,1744 L 1869,1902 L 1719,1902 L 1719,1854 L 1469,1854 L 1469,1902 L 1425,1902 L 1425,1964 L 1424,1970 L 1423,1976 L 1420,1981 L 1416,1986 L 1359,2042 L 1354,2046 L 1349,2049 L 1343,2051 L 1337,2052 z " style="fill-opacity:1.000000;fill:rgb(115,81,255);stroke:rgb(0,0,0);stroke-width:2"/></g>
<g fill-rule="evenodd"><path d="M 223,1050 L 372,901 L 377,897 L 383,895 L 388,893 L 394,892 L 443,892 L 443,872 L 546,872 L 546,974 L 443,974 L 443,954 L 407,954 L 267,1094 L 271,1107 L 273,1123 L 271,1140 L 266,1155 L 258,1169 L 247,1182 L 234,1191 L 225,1195 L 225,1571 L 347,1692 L 406,1692 L 407,1689 L 415,1681 L 424,1675 L 435,1670 L 445,1668 L 538,1668 L 549,1669 L 559,1672 L 569,1678 L 578,1685 L 584,1694 L 589,1704 L 592,1715 L 593,1726 L 591,1737 L 587,1747 L 581,1757 L 574,1765 L 564,1771 L 554,1776 L 543,1778 L 451,1778 L 440,1777 L 429,1774 L 420,1768 L 411,1761 L 406,1754 L 334,1754 L 328,1753 L 322,1752 L 317,1749 L 312,1745 L 173,1605 L 169,1601 L 166,1595 L 164,1590 L 163,1583 L 163,1195 L 155,1191 L 142,1182 L 131,1169 L 123,1155 L 117,1140 L 116,1123 L 117,1107 L 123,1091 L 131,1077 L 142,1065 L 155,1055 L 170,1048 L 186,1045 L 203,1045 L 219,1048 L 223,1050 z " style="fill-opacity:1.000000;fill:rgb(74,236,41);stroke:rgb(0,0,0);stroke-width:2"/></g>
<g fill-rule="evenodd"><path d="M 3065,1050 L 3069,1048 L 3085,1045 L 3102,1045 L 3118,1048 L 3133,1055 L 3146,1065 L 3157,1077 L 3165,1091 L 3171,1107 L 3172,1123 L 3171,1140 L 3165,1155 L 3157,1169 L 3146,1182 L 3133,1191 L 3118,1198 L 3102,1201 L 3085,1201 L 3069,1198 L 3054,1191 L 3041,1182 L 3030,1169 L 3022,1155 L 3017,1140 L 3015,1123 L 3017,1107 L 3021,1094 L 2881,954 L 2845,954 L 2845,974 L 2825,974 L 2825,1036 L 2824,1042 L 2822,1048 L 2819,1054 L 2816,1058 L 2555,1319 L 2555,1692 L 2605,1692 L 2607,1689 L 2615,1681 L 2624,1675 L 2634,1670 L 2645,1668 L 2737,1668 L 2748,1669 L 2759,1672 L 2768,1678 L 2777,1685 L 2784,1694 L 2789,1704 L 2791,1715 L 2792,1726 L 2790,1737 L 2786,1747 L 2781,1757 L 2773,1765 L 2764,1771 L 2753,1776 L 2743,1778 L 2650,1778 L 2639,1777 L 2629,1774 L 2619,1768 L 2610,1761 L 2605,1754 L 2533,1754 L 2527,1753 L 2521,1752 L 2516,1749 L 2511,1745 L 2502,1736 L 2499,1731 L 2496,1726 L 2494,1720 L 2493,1714 L 2493,1306 L 2494,1300 L 2496,1294 L 2499,1289 L 2502,1284 L 2763,1024 L 2763,974 L 2742,974 L 2742,872 L 2845,872 L 2845,892 L 2894,892 L 2900,893 L 2905,895 L 2911,897 L 2916,901 L 3065,1050 z " style="fill-opacity:1.000000;fill:rgb(205,186,171);stroke:rgb(0,0,0);stroke-width:2"/></g>
<g fill-rule="evenodd"><path d="M 583,1597 L 581,1599 L 574,1607 L 564,1614 L 554,1618 L 543,1620 L 451,1621 L 440,1620 L 429,1616 L 420,1611 L 411,1604 L 404,1595 L 399,1585 L 397,1574 L 396,1563 L 398,1552 L 402,1541 L 407,1532 L 415,1524 L 424,1517 L 435,1513 L 445,1511 L 538,1510 L 549,1512 L 559,1515 L 569,1520 L 578,1528 L 583,1534 L 1767,1534 L 2262,1038 L 2262,923 L 2263,917 L 2265,911 L 2268,906 L 2272,901 L 2276,897 L 2282,894 L 2288,892 L 2294,892 L 2557,892 L 2563,885 L 2571,879 L 2581,875 L 2592,872 L 2602,872 L 2613,875 L 2622,879 L 2631,885 L 2638,893 L 2644,902 L 2647,913 L 2648,923 L 2647,934 L 2644,944 L 2638,953 L 2631,961 L 2622,968 L 2613,972 L 2602,974 L 2592,974 L 2581,972 L 2571,968 L 2563,961 L 2557,955 L 2325,955 L 2325,1052 L 2333,1055 L 2346,1065 L 2357,1077 L 2366,1091 L 2371,1107 L 2372,1123 L 2371,1140 L 2366,1155 L 2357,1169 L 2346,1182 L 2333,1191 L 2318,1198 L 2302,1201 L 2286,1201 L 2269,1198 L 2254,1191 L 2241,1182 L 2230,1169 L 2227,1163 L 1802,1588 L 1797,1592 L 1792,1595 L 1786,1596 L 1780,1597 L 583,1597 z " style="fill-opacity:1.000000;fill:rgb(242,251,227);stroke:rgb(0,0,0);stroke-width:2"/></g>
<g fill-rule="evenodd"><path d="M 1287,0 L 2001,0 L 2007,0 L 2013,2 L 2018,5 L 2023,9 L 2265,251 L 2269,249 L 2286,245 L 2302,245 L 2318,249 L 2333,255 L 2346,265 L 2357,277 L 2366,292 L 3022,292 L 3030,277 L 3041,265 L 3054,255 L 3069,249 L 3085,245 L 3102,245 L 3118,249 L 3133,255 L 3146,265 L 3157,277 L 3165,291 L 3171,307 L 3172,323 L 3171,340 L 3165,355 L 3157,370 L 3146,382 L 3133,392 L 3118,398 L 3102,402 L 3085,402 L 3069,398 L 3054,392 L 3041,382 L 3030,370 L 3022,355 L 2366,355 L 2357,370 L 2346,382 L 2333,392 L 2318,398 L 2302,402 L 2286,402 L 2269,398 L 2254,392 L 2244,384 L 1832,590 L 1832,849 L 1556,849 L 1556,574 L 1723,574 L 2216,327 L 2215,323 L 2217,307 L 2221,294 L 1988,61 L 1300,61 L 1067,294 L 1071,307 L 1073,323 L 1071,340 L 1066,355 L 1058,370 L 1047,382 L 1034,392 L 1019,398 L 1002,402 L 986,402 L 970,398 L 955,392 L 942,382 L 931,370 L 922,355 L 266,355 L 258,370 L 247,382 L 234,392 L 219,398 L 203,402 L 186,402 L 170,398 L 155,392 L 142,382 L 131,370 L 123,355 L 117,340 L 116,323 L 117,307 L 123,291 L 131,277 L 142,265 L 155,255 L 170,249 L 186,245 L 203,245 L 219,249 L 234,255 L 247,265 L 258,277 L 266,292 L 922,292 L 931,277 L 942,265 L 955,255 L 970,249 L 986,245 L 1002,245 L 1019,249 L 1023,251 L 1265,9 L 1270,5 L 1275,2 L 1281,0 L 1287,0 z " style="fill-opacity:1.000000;fill:rgb(70,124,194);stroke:rgb(0,0,0);stroke-width:2"/></g>
<g fill-rule="evenodd"><path d="M 583,1912 L 581,1914 L 574,1922 L 564,1929 L 554,1933 L 543,1935 L 451,1936 L 440,1934 L 429,1931 L 420,1926 L 411,1918 L 404,1910 L 399,1900 L 397,1889 L 396,1878 L 398,1867 L 402,1856 L 407,1847 L 415,1839 L 424,1832 L 435,1828 L 445,1826 L 538,1825 L 549,1826 L 559,1830 L 569,1835 L 578,1842 L 583,1849 L 1031,1849 L 1120,1816 L 1121,1807 L 1126,1793 L 1134,1779 L 1144,1767 L 1157,1758 L 1171,1752 L 1186,1749 L 1202,1749 L 1217,1752 L 1232,1758 L 1244,1767 L 1255,1779 L 1262,1793 L 1267,1807 L 1269,1823 L 1267,1839 L 1262,1853 L 1255,1867 L 1244,1879 L 1232,1888 L 1217,1894 L 1202,1897 L 1186,1897 L 1171,1894 L 1157,1888 L 1144,1879 L 1142,1876 L 1047,1910 L 1042,1911 L 1037,1912 L 583,1912 z " style="fill-opacity:1.000000;fill:rgb(84,248,27);stroke:rgb(0,0,0);stroke-width:2"/></g>
<g fill-rule="evenodd"><path d="M 2605,1849 L 2607,1847 L 2615,1839 L 2624,1832 L 2634,1828 L 2645,1826 L 2737,1825 L 2748,1826 L 2759,1830 L 2768,1835 L 2777,1842 L 2784,1851 L 2789,1861 L 2791,1872 L 2792,1883 L 2790,1894 L 2786,1905 L 2781,1914 L 2773,1922 L 2764,1929 L 2753,1933 L 2743,1935 L 2650,1936 L 2639,1934 L 2629,1931 L 2619,1926 L 2610,1918 L 2605,1912 L 2051,1912 L 2045,1911 L 2039,1910 L 2034,1907 L 2029,1903 L 2019,1893 L 2017,1894 L 2002,1897 L 1986,1897 L 1971,1894 L 1957,1888 L 1944,1879 L 1933,1867 L 1926,1853 L 1921,1839 L 1919,1823 L 1921,1807 L 1926,1793 L 1933,1779 L 1944,1767 L 1957,1758 L 1971,1752 L 1986,1749 L 2002,1749 L 2017,1752 L 2031,1758 L 2044,1767 L 2054,1779 L 2062,1793 L 2067,1807 L 2069,1823 L 2067,1839 L 2064,1848 L 2064,1849 L 2605,1849 z " style="fill-opacity:1.000000;fill:rgb(232,231,141);stroke:rgb(0,0,0);stroke-width:2"/></g>
</svg>
