<?xml version="1.0" standalone="no"?>
<!DOCTYPE svg PUBLIC "-//W3C//DTD SVG 1.1//EN"
"http://www.w3.org/Graphics/SVG/1.1/DTD/svg11.dtd">
<svg width="3936" height="2736" viewBox="0 0 3936 2736" version="1.1"
xmlns="http://www.w3.org/2000/svg"
xmlns:xlink="http://www.w3.org/1999/xlink">
<g fill-rule="evenodd"><path d="M 0,2736 L 0,0 L 3935,0 L 3935,2736 L 0,2736 z " style="fill-opacity:0.300000;fill:rgb(103,198,105);"/></g>
<g fill-rule="evenodd"><path d="M 0,118 L 2,95 L 9,72 L 19,52 L 34,34 L 52,19 L 72,8 L 95,2 L 118,0 L 3817,0 L 3840,2 L 3863,8 L 3883,19 L 3901,34 L 3916,52 L 3926,72 L 3933,95 L 3935,118 L 3935,2617 L 3933,2640 L 3926,2663 L 3916,2683 L 3901,2701 L 3883,2716 L 3863,2727 L 3840,2733 L 3817,2736 L 118,2736 L 95,2733 L 72,2727 L 52,2716 L 34,2701 L 19,2683 L 9,2663 L 2,2640 L 0,2617 L 0,118 z " style="fill-opacity:0.600000;fill:rgb(103,198,105);stroke:rgb(0,0,0);stroke-width:2"/></g>
<g fill-rule="evenodd"><path d="M 118,2617 L 118,118 L 3817,118 L 3817,2617 L 118,2617 z " style="fill-opacity:1.000000;fill:rgb(103,198,105);stroke:rgb(0,0,0);stroke-width:2"/></g>
</svg>
