M48
;DRILL file {KiCad 4.0.4+e1-6308~48~ubuntu14.04.1-stable} date Wed May 10 18:54:40 2017
;FORMAT={-:-/ absolute / metric / decimal}
FMAT,2
METRIC,TZ
T1C0.800
T2C1.001
%
G90
G05
M71
T1
X86.36Y-74.93
X86.36Y-81.28
X86.36Y-83.82
X86.36Y-86.36
X88.86Y-74.93
X113.07Y-74.93
X115.57Y-74.93
X115.57Y-81.28
X115.57Y-83.82
X115.57Y-86.36
T2
X82.55Y-64.77
X82.55Y-74.93
X92.71Y-64.77
X92.71Y-74.93
X95.25Y-83.82
X97.79Y-83.82
X102.87Y-83.82
X105.41Y-83.82
X109.22Y-64.77
X109.22Y-74.93
X119.38Y-64.77
X119.38Y-74.93
T2
X96.901Y-65.701G85X96.901Y-67.7
G05
X102.599Y-63.701G85X100.601Y-63.701
G05
X102.599Y-69.7G85X100.601Y-69.7
G05
T0
M30
